<?xml version="1.0"?>
<svg xmlns="http://www.w3.org/2000/svg" enable-background="new 0 0 60 60" viewBox="0 0 60 60" ><g><path d="m31.734 60h-27.468c-2.352 0-4.266-1.913-4.266-4.266v-4.734c0-.553.448-1 1-1h34c.552 0 1 .447 1 1v4.734c0 2.353-1.914 4.266-4.266 4.266zm-29.734-8v3.734c0 1.249 1.016 2.266 2.266 2.266h27.469c1.249 0 2.265-1.017 2.265-2.266v-3.734z" data-original="#000000" class="active-path" data-old_color="#000000" fill="#0948b3"/><path d="m21 56h-6c-.552 0-1-.447-1-1s.448-1 1-1h6c.552 0 1 .447 1 1s-.448 1-1 1z" data-original="#000000" class="active-path" data-old_color="#000000" fill="#0948b3"/><path d="m30 56h-4c-.552 0-1-.447-1-1s.448-1 1-1h4c.552 0 1 .447 1 1s-.448 1-1 1z" data-original="#000000" class="active-path" data-old_color="#000000" fill="#0948b3"/><path d="m10 56h-4c-.552 0-1-.447-1-1s.448-1 1-1h4c.552 0 1 .447 1 1s-.448 1-1 1z" data-original="#000000" class="active-path" data-old_color="#000000" fill="#0948b3"/><path d="m35 10h-34c-.552 0-1-.447-1-1v-4.734c0-2.353 1.914-4.266 4.266-4.266h27.469c2.351 0 4.265 1.913 4.265 4.266v4.734c0 .553-.448 1-1 1zm-33-2h32v-3.734c0-1.249-1.016-2.266-2.266-2.266h-27.468c-1.25 0-2.266 1.017-2.266 2.266z" data-original="#000000" class="active-path" data-old_color="#000000" fill="#0948b3"/><path d="m23 6h-10c-.552 0-1-.447-1-1s.448-1 1-1h10c.552 0 1 .447 1 1s-.448 1-1 1z" data-original="#000000" class="active-path" data-old_color="#000000" fill="#0948b3"/><path d="m57.003 48h-40.006c-1.653 0-2.997-1.345-2.997-2.997v-30.006c0-1.652 1.344-2.997 2.997-2.997h40.006c1.653 0 2.997 1.345 2.997 2.997v30.006c0 1.652-1.344 2.997-2.997 2.997zm-40.006-34c-.55 0-.997.447-.997.997v30.006c0 .55.447.997.997.997h40.006c.55 0 .997-.447.997-.997v-30.006c0-.55-.447-.997-.997-.997z" data-original="#000000" class="active-path" data-old_color="#000000" fill="#0948b3"/><path d="m35 52h-34c-.552 0-1-.447-1-1v-42c0-.553.448-1 1-1h34c.552 0 1 .447 1 1v4c0 .553-.448 1-1 1h-18.003c-.55 0-.997.447-.997.997v30.006c0 .55.447.997.997.997h18.003c.552 0 1 .447 1 1v4c0 .553-.448 1-1 1zm-33-2h32v-2h-17.003c-1.653 0-2.997-1.345-2.997-2.997v-30.006c0-1.652 1.344-2.997 2.997-2.997h17.003v-2h-32z" data-original="#000000" class="active-path" data-old_color="#000000" fill="#0948b3"/><path d="m59 22h-44c-.552 0-1-.447-1-1v-6.003c0-1.652 1.344-2.997 2.997-2.997h40.006c1.653 0 2.997 1.345 2.997 2.997v6.003c0 .553-.448 1-1 1zm-43-2h42v-5.003c0-.55-.447-.997-.997-.997h-40.006c-.55 0-.997.447-.997.997z" data-original="#000000" class="active-path" data-old_color="#000000" fill="#0948b3"/><path d="m21 18h-2c-.552 0-1-.447-1-1s.448-1 1-1h2c.552 0 1 .447 1 1s-.448 1-1 1z" data-original="#000000" class="active-path" data-old_color="#000000" fill="#0948b3"/><path d="m27 18h-2c-.552 0-1-.447-1-1s.448-1 1-1h2c.552 0 1 .447 1 1s-.448 1-1 1z" data-original="#000000" class="active-path" data-old_color="#000000" fill="#0948b3"/><path d="m33 18h-2c-.552 0-1-.447-1-1s.448-1 1-1h2c.552 0 1 .447 1 1s-.448 1-1 1z" data-original="#000000" class="active-path" data-old_color="#000000" fill="#0948b3"/><path d="m11 47h-6c-.552 0-1-.447-1-1v-6c0-.553.448-1 1-1h6c.552 0 1 .447 1 1v6c0 .553-.448 1-1 1zm-5-2h4v-4h-4z" data-original="#000000" class="active-path" data-old_color="#000000" fill="#0948b3"/><path d="m11 21h-6c-.552 0-1-.447-1-1v-6c0-.553.448-1 1-1h6c.552 0 1 .447 1 1v6c0 .553-.448 1-1 1zm-5-2h4v-4h-4z" data-original="#000000" class="active-path" data-old_color="#000000" fill="#0948b3"/><path d="m11 37h-6c-.552 0-1-.447-1-1v-12c0-.553.448-1 1-1h6c.552 0 1 .447 1 1v12c0 .553-.448 1-1 1zm-5-2h4v-10h-4z" data-original="#000000" class="active-path" data-old_color="#000000" fill="#0948b3"/><path d="m43 44h-12c-.552 0-1-.447-1-1v-10c0-.553.448-1 1-1h12c.552 0 1 .447 1 1v10c0 .553-.448 1-1 1zm-11-2h10v-8h-10z" data-original="#000000" class="active-path" data-old_color="#000000" fill="#0948b3"/><path d="m41 34h-8c-.552 0-1-.447-1-1v-4c0-2.757 2.243-5 5-5s5 2.243 5 5v4c0 .553-.448 1-1 1zm-7-2h6v-3c0-1.654-1.346-3-3-3s-3 1.346-3 3z" data-original="#000000" class="active-path" data-old_color="#000000" fill="#0948b3"/><path d="m19 30c-.552 0-1-.447-1-1v-4c0-.553.448-1 1-1h4c.552 0 1 .447 1 1s-.448 1-1 1h-3v3c0 .553-.448 1-1 1z" data-original="#000000" class="active-path" data-old_color="#000000" fill="#0948b3"/><path d="m55 44h-4c-.552 0-1-.447-1-1s.448-1 1-1h3v-3c0-.553.448-1 1-1s1 .447 1 1v4c0 .553-.448 1-1 1z" data-original="#000000" class="active-path" data-old_color="#000000" fill="#0948b3"/><path d="m37 40c-.552 0-1-.447-1-1v-2c0-.553.448-1 1-1s1 .447 1 1v2c0 .553-.448 1-1 1z" data-original="#000000" class="active-path" data-old_color="#000000" fill="#0948b3"/><path d="m39 38h-4c-.552 0-1-.447-1-1s.448-1 1-1h4c.552 0 1 .447 1 1s-.448 1-1 1z" data-original="#000000" class="active-path" data-old_color="#000000" fill="#0948b3"/></g> </svg>
