<?xml version="1.0"?>
<svg xmlns="http://www.w3.org/2000/svg" id="Layer_3" enable-background="new 0 0 64 64" viewBox="0 0 64 64"><g><path d="m16 25c-6.065 0-11 4.935-11 11s4.935 11 11 11 11-4.935 11-11-4.935-11-11-11zm-3 16c-.552 0-1-.448-1-1s.448-1 1-1h7c1.654 0 3-1.346 3-3s-1.346-3-3-3h-2c-.552 0-1-.448-1-1s.448-1 1-1h5.478c.96 1.431 1.522 3.151 1.522 5s-.562 3.569-1.522 5zm-1.936-12.517c.594.713.936 1.595.936 2.517 0 2.206-1.794 4-4 4-.313 0-.62-.047-.923-.119.334-2.672 1.838-4.982 3.987-6.398zm-4.018 8.433c.315.051.632.084.954.084 3.309 0 6-2.691 6-6 0-1.239-.398-2.433-1.111-3.434.971-.36 2.016-.566 3.111-.566 2.137 0 4.099.752 5.645 2h-3.645c-1.654 0-3 1.346-3 3s1.346 3 3 3h2c.552 0 1 .448 1 1s-.448 1-1 1h-7c-1.654 0-3 1.346-3 3s1.346 3 3 3h8.645c-1.545 1.248-3.508 2-5.645 2-4.654 0-8.493-3.55-8.954-8.084z" data-original="#000000" class="active-path" data-old_color="#000000" fill="#0948b3"/><circle cx="6" cy="26" r="1" data-original="#000000" class="active-path" data-old_color="#000000" fill="#0948b3"/><circle cx="27" cy="26" r="1" data-original="#000000" class="active-path" data-old_color="#000000" fill="#0948b3"/><circle cx="6" cy="46" r="1" data-original="#000000" class="active-path" data-old_color="#000000" fill="#0948b3"/><circle cx="27" cy="46" r="1" data-original="#000000" class="active-path" data-old_color="#000000" fill="#0948b3"/><path d="m58 1h-32c-2.757 0-5 2.243-5 5v15h-17c-1.654 0-3 1.346-3 3v24c0 1.654 1.346 3 3 3h17v7c0 2.757 2.243 5 5 5h32c2.757 0 5-2.243 5-5v-52c0-2.757-2.243-5-5-5zm-32 2h32c1.654 0 3 1.346 3 3v3h-38v-3c0-1.654 1.346-3 3-3zm-23 45v-24c0-.552.448-1 1-1h24c.552 0 1 .448 1 1v24c0 .552-.448 1-1 1h-24c-.552 0-1-.448-1-1zm25 3c1.654 0 3-1.346 3-3v-24c0-1.654-1.346-3-3-3h-5v-10h38v42h-38v-2zm30 10h-32c-1.654 0-3-1.346-3-3v-3h38v3c0 1.654-1.346 3-3 3z" data-original="#000000" class="active-path" data-old_color="#000000" fill="#0948b3"/><path d="m36 5h12v2h-12z" data-original="#000000" class="active-path" data-old_color="#000000" fill="#0948b3"/><path d="m36 57h12v2h-12z" data-original="#000000" class="active-path" data-old_color="#000000" fill="#0948b3"/><path d="m37 29h2v3h-2v8h2v3h-2v8h22v-8h-2v-3h2v-8h-2v-3h2v-8h-22zm20 20h-18v-4h18zm-2-6h-14v-3h14zm2-5h-18v-4h18zm-2-6h-14v-3h14zm-16-9h18v4h-18z" data-original="#000000" class="active-path" data-old_color="#000000" fill="#0948b3"/><path d="m47 13h2v2h-2z" data-original="#000000" class="active-path" data-old_color="#000000" fill="#0948b3"/><path d="m43 13h2v2h-2z" data-original="#000000" class="active-path" data-old_color="#000000" fill="#0948b3"/><path d="m39 13h2v2h-2z" data-original="#000000" class="active-path" data-old_color="#000000" fill="#0948b3"/><path d="m35 13h2v2h-2z" data-original="#000000" class="active-path" data-old_color="#000000" fill="#0948b3"/><path d="m31 13h2v2h-2z" data-original="#000000" class="active-path" data-old_color="#000000" fill="#0948b3"/><path d="m47 17h2v2h-2z" data-original="#000000" class="active-path" data-old_color="#000000" fill="#0948b3"/><path d="m27 13h2v2h-2z" data-original="#000000" class="active-path" data-old_color="#000000" fill="#0948b3"/><path d="m27 17h2v2h-2z" data-original="#000000" class="active-path" data-old_color="#000000" fill="#0948b3"/></g> </svg>
