<?xml version="1.0"?>
<svg xmlns="http://www.w3.org/2000/svg" viewBox="-32 0 496 496"><g><path d="m392 136h-80v-24h-128v-32c0-17.648438 14.351562-32 32-32s32 14.351562 32 32v16h48v-16c0-44.113281-35.886719-80-80-80s-80 35.886719-80 80v32h-16v24h-80c-22.054688 0-40 17.945312-40 40v232c0 22.054688 17.945312 40 40 40h64v32h-32v16h288v-16h-32v-32h64c22.054688 0 40-17.945312 40-40v-232c0-22.054688-17.945312-40-40-40zm0 16c13.230469 0 24 10.769531 24 24v192h-16v-184c0-8.824219-7.175781-16-16-16h-72v-16zm-200 136v16.167969c-9.96875 7.511719-16 19.328125-16 31.832031 0 22.054688 17.945312 40 40 40s40-17.945312 40-40c0-12.503906-6.03125-24.320312-16-31.832031v-16.167969h72v-104h72v184h-67.3125l-32 32h-236.6875v-216h72v104zm35.976562 27.351562c7.527344 4.382813 12.023438 12.105469 12.023438 20.648438 0 13.230469-10.769531 24-24 24s-24-10.769531-24-24c0-8.542969 4.496094-16.265625 12.023438-20.648438l3.976562-2.3125v-105.039062h16v105.039062zm-75.976562-235.351562c0-35.289062 28.710938-64 64-64s64 28.710938 64 64h-16c0-26.472656-21.527344-48-48-48s-48 21.527344-48 48v32h-16zm-16 48h160v144h-56v-80h-48v16h-24v16h24v16h-24v16h24v16h-56zm-96 24h80v16h-72c-8.824219 0-16 7.175781-16 16v216h-16v-224c0-13.230469 10.769531-24 24-24zm272 328h-192v-32h192zm80-48h-352c-10.414062 0-19.214844-6.710938-22.527344-16h273.839844l32-32h92.6875v24c0 13.230469-10.769531 24-24 24zm0 0" data-original="#000000" class="active-path" data-old_color="#000000" fill="#0948b3"/><path d="m208 328h16v16h-16zm0 0" data-original="#000000" class="active-path" data-old_color="#000000" fill="#0948b3"/><path d="m216 160c8.824219 0 16 7.175781 16 16h16c0-17.648438-14.351562-32-32-32s-32 14.351562-32 32h16c0-8.824219 7.175781-16 16-16zm0 0" data-original="#000000" class="active-path" data-old_color="#000000" fill="#0948b3"/><path d="m352 400h16v16h-16zm0 0" data-original="#000000" class="active-path" data-old_color="#000000" fill="#0948b3"/><path d="m384 400h16v16h-16zm0 0" data-original="#000000" class="active-path" data-old_color="#000000" fill="#0948b3"/><path d="m320 400h16v16h-16zm0 0" data-original="#000000" class="active-path" data-old_color="#000000" fill="#0948b3"/><path d="m264 144h16v16h-16zm0 0" data-original="#000000" class="active-path" data-old_color="#000000" fill="#0948b3"/><path d="m152 144h16v16h-16zm0 0" data-original="#000000" class="active-path" data-old_color="#000000" fill="#0948b3"/></g> </svg>
