<?xml version="1.0"?>
<svg xmlns="http://www.w3.org/2000/svg" id="Capa_1" enable-background="new 0 0 512 512"  viewBox="0 0 512 512"  class=""><g><path d="m442.82 83.093-159.524-76.74c-17.57-8.45-37.421-8.472-54.469-.063l-49.454 23.8c-5.012 2.412-7.12 8.43-4.708 13.443 2.412 5.012 8.43 7.121 13.441 4.708l49.5-23.822c.032-.016.064-.031.096-.047 5.424-2.682 19.874-8.037 36.865.134l159.525 76.739c21.744 10.451 24.538 11.794 24.755 36.102.551 62.763-17.436 130.316-52.015 195.356-37.229 70.019-81.297 120.712-130.981 150.668-18.738 11.296-20.964 11.297-39.702 0-49.683-29.956-93.751-80.648-130.981-150.668-34.578-65.037-52.565-132.59-52.014-195.353.216-24.309 3.01-25.652 24.759-36.106l29.947-14.419c5.011-2.413 7.118-8.432 4.705-13.443-2.412-5.012-8.431-7.119-13.442-4.706l-29.94 14.415c-26.551 12.762-35.868 20.246-36.17 54.081-.579 66.112 18.222 136.996 54.372 204.99 38.964 73.283 85.517 126.598 138.365 158.462 12.581 7.584 21.416 11.376 30.25 11.376 8.835 0 17.669-3.792 30.25-11.376 52.849-31.865 99.402-85.179 138.365-158.462 36.15-67.995 54.953-138.879 54.372-204.991-.301-33.834-9.618-41.318-36.167-54.078z" data-original="#000000" class="active-path" data-old_color="#000000" fill="#0948b3"/><path d="m167.678 253.682h23.884v7.787c0 11.228 2.886 21.792 7.946 30.997l-15.541 15.582c-3.928 3.938-3.92 10.315.018 14.243 1.966 1.961 4.539 2.941 7.112 2.941 2.581 0 5.163-.987 7.13-2.959l13.737-13.773c11.53 10.827 27.018 17.477 44.036 17.477 17.021 0 32.511-6.653 44.042-17.482l13.765 13.783c1.966 1.969 4.545 2.954 7.125 2.954 2.575 0 5.151-.982 7.117-2.946 3.935-3.931 3.939-10.308.008-14.243l-15.562-15.582c5.058-9.204 7.943-19.766 7.943-30.992v-7.787h23.913c5.562 0 10.071-4.509 10.071-10.072s-4.509-10.072-10.071-10.072h-23.913v-21.765l21.074-21.101c3.931-3.935 3.927-10.312-.008-14.243s-10.312-3.927-14.241.008l-9.468 9.479c-4.965-14.456-16.529-25.859-31.08-30.584l9.646-16.743c2.776-4.82 1.121-10.978-3.698-13.755-4.821-2.777-10.977-1.12-13.753 3.698l-14.071 24.425h-17.652l-14.099-24.431c-2.78-4.817-8.939-6.469-13.756-3.689-4.817 2.781-6.469 8.94-3.688 13.758l9.659 16.738c-14.559 4.726-26.128 16.129-31.095 30.584l-9.468-9.48c-3.931-3.936-10.308-3.939-14.242-.008-3.935 3.931-3.939 10.308-.008 14.243l21.075 21.101v21.764h-23.884c-5.562 0-10.07 4.509-10.07 10.072s4.506 10.073 10.067 10.073zm53.205 34.783c-.259-.41-.55-.804-.874-1.181-5.22-7.279-8.306-16.191-8.306-25.816v-30.003h34.227v73.197c-10.116-2.364-18.907-8.204-25.047-16.197zm45.188 16.198v-73.197h34.225v30.003c0 9.628-3.088 18.543-8.311 25.823-.321.374-.61.765-.867 1.171-6.139 7.993-14.931 13.834-25.047 16.2zm-25.76-131.561h1.039c.01 0 .02.002.03.002s.02-.002.03-.002h29.208c.01 0 .02.002.03.002s.02-.002.03-.002h1.039c15.758 0 28.578 12.842 28.578 28.627v9.594h-88.593v-3.708c0-.002 0-.003 0-.005v-5.88c.001-15.786 12.835-28.628 28.609-28.628z" data-original="#000000" class="active-path" data-old_color="#000000" fill="#e18e15"/><path d="m85.147 160.852c-.437 51.265 13.846 106.241 41.307 158.99 29.629 56.863 65.082 98.257 105.372 123.029 9.941 6.126 17.055 9.188 24.178 9.187 7.119 0 14.244-3.062 24.195-9.184 40.264-24.754 75.708-66.148 105.35-123.035 27.46-52.745 41.743-107.722 41.305-158.992-.244-27.23-8.051-33.618-28.652-43.724l-120.444-59.107c-14.003-6.872-29.824-6.895-43.419-.063l-120.549 59.176c-20.594 10.134-28.398 16.528-28.643 43.723zm22.928-16.398c1.952-2.715 6.265-5.146 14.597-9.246l120.588-59.195c.031-.016.063-.031.094-.047 2.723-1.372 7.106-3.003 12.552-3.003 3.863 0 8.26.821 12.978 3.136l120.445 59.109c8.329 4.086 12.637 6.509 14.593 9.232 1.9 2.645 2.708 7.45 2.79 16.583.409 47.98-13.087 99.682-39.028 149.51-27.933 53.609-60.916 92.36-98.037 115.182-7.231 4.449-11.057 6.182-13.644 6.182-2.584 0-6.402-1.732-13.616-6.178-.003-.002-.006-.004-.009-.006-37.146-22.837-70.139-61.59-98.061-115.177-25.943-49.832-39.439-101.533-39.029-149.509.082-9.131.889-13.933 2.787-16.573z" data-original="#000000" class="active-path" data-old_color="#000000" fill="#0948b3"/><path d="m143.809 68.422c2.586 0 5.173-.987 7.143-2.957 3.933-3.933 3.933-10.311 0-14.244s-10.309-3.933-14.242 0l-.029.029c-3.933 3.933-3.918 10.296.015 14.229 1.962 1.964 4.536 2.943 7.113 2.943z" data-original="#000000" class="active-path" data-old_color="#000000" fill="#e18e15"/></g> </svg>
