<svg xmlns="http://www.w3.org/2000/svg" width="370.479" height="318.055" viewBox="0 0 370.479 318.055">
  <g id="partner-img" transform="translate(-34.832 -69.557)">
    <g id="Group_3116" data-name="Group 3116" opacity="0.2">
      <g id="Group_3085" data-name="Group 3085">
        <g id="Group_3076" data-name="Group 3076">
          <path id="Path_60195" data-name="Path 60195" d="M125.643,233.795l-5.321-3.072,5.321-3.072,5.322,3.072Z" fill="#0168bc"/>
          <path id="Path_60196" data-name="Path 60196" d="M136.286,239.939l-5.322-3.072,5.321-3.072,5.322,3.072Z" fill="#0168bc" opacity="0.1"/>
          <path id="Path_60197" data-name="Path 60197" d="M146.929,246.084l-5.321-3.072,5.321-3.072,5.322,3.072Z" fill="#0168bc" opacity="0.4"/>
          <path id="Path_60198" data-name="Path 60198" d="M157.572,252.229l-5.322-3.072,5.321-3.072,5.321,3.072Z" fill="#0168bc"/>
          <path id="Path_60199" data-name="Path 60199" d="M168.215,258.374l-5.321-3.072,5.321-3.072,5.322,3.072Z" fill="#0168bc" opacity="0.4"/>
          <path id="Path_60200" data-name="Path 60200" d="M178.858,264.518l-5.322-3.072,5.321-3.072,5.322,3.072Z" fill="#0168bc"/>
          <path id="Path_60201" data-name="Path 60201" d="M189.5,270.663l-5.322-3.072,5.321-3.072,5.322,3.072Z" fill="#0168bc"/>
          <path id="Path_60202" data-name="Path 60202" d="M200.144,276.808l-5.322-3.072,5.321-3.072,5.322,3.072Z" fill="#0168bc"/>
          <path id="Path_60203" data-name="Path 60203" d="M210.787,282.953l-5.322-3.072,5.321-3.072,5.322,3.072Z" fill="#0168bc" opacity="0.1"/>
        </g>
        <g id="Group_3077" data-name="Group 3077">
          <path id="Path_60204" data-name="Path 60204" d="M114.957,239.964l-5.322-3.072,5.321-3.072,5.322,3.072Z" fill="#0168bc"/>
          <path id="Path_60205" data-name="Path 60205" d="M125.6,246.109l-5.322-3.072,5.321-3.072,5.321,3.072Z" fill="#0168bc"/>
          <path id="Path_60206" data-name="Path 60206" d="M136.243,252.254l-5.322-3.072,5.321-3.072,5.322,3.072Z" fill="#0168bc"/>
          <path id="Path_60207" data-name="Path 60207" d="M146.886,258.4l-5.322-3.072,5.321-3.072,5.322,3.072Z" fill="#0168bc"/>
          <path id="Path_60208" data-name="Path 60208" d="M157.529,264.543l-5.322-3.072,5.321-3.072,5.322,3.072Z" fill="#0168bc"/>
          <path id="Path_60209" data-name="Path 60209" d="M168.172,270.688l-5.322-3.072,5.321-3.072,5.322,3.072Z" fill="#0168bc"/>
          <path id="Path_60210" data-name="Path 60210" d="M178.815,276.833l-5.322-3.072,5.321-3.072,5.322,3.072Z" fill="#0168bc"/>
          <path id="Path_60211" data-name="Path 60211" d="M189.458,282.978l-5.322-3.072,5.321-3.072,5.322,3.072Z" fill="#0168bc"/>
          <path id="Path_60212" data-name="Path 60212" d="M200.1,289.122l-5.322-3.072,5.321-3.072,5.322,3.072Z" fill="#0168bc"/>
        </g>
        <g id="Group_3078" data-name="Group 3078">
          <path id="Path_60213" data-name="Path 60213" d="M104.271,246.134l-5.322-3.072,5.321-3.072,5.322,3.072Z" fill="#0168bc"/>
          <path id="Path_60214" data-name="Path 60214" d="M114.914,252.279l-5.322-3.072,5.321-3.072,5.322,3.072Z" fill="#0168bc"/>
          <path id="Path_60215" data-name="Path 60215" d="M125.557,258.423l-5.322-3.072,5.321-3.072,5.322,3.072Z" fill="#0168bc"/>
          <path id="Path_60216" data-name="Path 60216" d="M136.2,264.568l-5.322-3.072,5.321-3.072,5.322,3.072Z" fill="#0168bc" opacity="0.1"/>
          <path id="Path_60217" data-name="Path 60217" d="M146.843,270.713l-5.322-3.072,5.321-3.072,5.322,3.072Z" fill="#0168bc" opacity="0.4"/>
          <path id="Path_60218" data-name="Path 60218" d="M157.486,276.858l-5.321-3.072,5.321-3.072,5.322,3.072Z" fill="#0168bc" opacity="0.4"/>
          <path id="Path_60219" data-name="Path 60219" d="M168.129,283l-5.322-3.072,5.321-3.072,5.321,3.072Z" fill="#0168bc"/>
          <path id="Path_60220" data-name="Path 60220" d="M178.772,289.147l-5.321-3.072L178.772,283l5.322,3.072Z" fill="#0168bc"/>
          <path id="Path_60221" data-name="Path 60221" d="M189.415,295.292l-5.322-3.072,5.321-3.072,5.322,3.072Z" fill="#0168bc"/>
        </g>
        <g id="Group_3079" data-name="Group 3079">
          <path id="Path_60222" data-name="Path 60222" d="M93.585,252.3l-5.322-3.072,5.321-3.072,5.321,3.072Z" fill="#0168bc" opacity="0.4"/>
          <path id="Path_60223" data-name="Path 60223" d="M104.228,258.448l-5.322-3.072,5.321-3.072,5.322,3.072Z" fill="#0168bc" opacity="0.4"/>
          <path id="Path_60224" data-name="Path 60224" d="M114.871,264.593l-5.321-3.072,5.321-3.072,5.322,3.072Z" fill="#0168bc" opacity="0.1"/>
          <path id="Path_60225" data-name="Path 60225" d="M125.514,270.738l-5.322-3.072,5.321-3.072,5.321,3.072Z" fill="#0168bc"/>
          <path id="Path_60226" data-name="Path 60226" d="M136.157,276.883l-5.322-3.072,5.321-3.072,5.322,3.072Z" fill="#0168bc"/>
          <path id="Path_60227" data-name="Path 60227" d="M146.8,283.027l-5.322-3.072,5.321-3.072,5.322,3.072Z" fill="#0168bc"/>
          <path id="Path_60228" data-name="Path 60228" d="M157.443,289.172l-5.322-3.072,5.321-3.072,5.322,3.072Z" fill="#0168bc" opacity="0.4"/>
          <path id="Path_60229" data-name="Path 60229" d="M168.086,295.317l-5.322-3.072,5.321-3.072,5.322,3.072Z" fill="#0168bc"/>
          <path id="Path_60230" data-name="Path 60230" d="M178.729,301.462l-5.322-3.072,5.321-3.072,5.322,3.072Z" fill="#0168bc"/>
        </g>
        <g id="Group_3080" data-name="Group 3080">
          <path id="Path_60231" data-name="Path 60231" d="M82.9,258.473,77.577,255.4l5.321-3.072L88.22,255.4Z" fill="#0168bc"/>
          <path id="Path_60232" data-name="Path 60232" d="M93.542,264.618l-5.322-3.072,5.321-3.072,5.322,3.072Z" fill="#0168bc"/>
          <path id="Path_60233" data-name="Path 60233" d="M104.185,270.763l-5.322-3.072,5.321-3.072,5.322,3.072Z" fill="#0168bc"/>
          <path id="Path_60234" data-name="Path 60234" d="M114.828,276.907l-5.321-3.072,5.321-3.072,5.322,3.072Z" fill="#0168bc"/>
          <path id="Path_60235" data-name="Path 60235" d="M125.471,283.052l-5.322-3.072,5.321-3.072,5.322,3.072Z" fill="#0168bc"/>
          <path id="Path_60236" data-name="Path 60236" d="M136.114,289.2l-5.321-3.072,5.321-3.072,5.322,3.072Z" fill="#0168bc"/>
          <path id="Path_60237" data-name="Path 60237" d="M146.757,295.342l-5.322-3.072,5.321-3.072,5.321,3.072Z" fill="#0168bc"/>
          <path id="Path_60238" data-name="Path 60238" d="M157.4,301.487l-5.322-3.072,5.321-3.072,5.322,3.072Z" fill="#0168bc"/>
          <path id="Path_60239" data-name="Path 60239" d="M168.043,307.631l-5.322-3.072,5.321-3.072,5.322,3.072Z" fill="#0168bc"/>
        </g>
        <g id="Group_3081" data-name="Group 3081">
          <path id="Path_60240" data-name="Path 60240" d="M72.212,264.643l-5.322-3.072,5.321-3.072,5.322,3.072Z" fill="#0168bc"/>
          <path id="Path_60241" data-name="Path 60241" d="M82.855,270.788l-5.322-3.072,5.321-3.072,5.322,3.072Z" fill="#0168bc"/>
          <path id="Path_60242" data-name="Path 60242" d="M93.5,276.932l-5.321-3.072,5.321-3.072,5.322,3.072Z" fill="#0168bc" opacity="0.4"/>
          <path id="Path_60243" data-name="Path 60243" d="M104.142,283.077,98.82,280l5.321-3.072L109.463,280Z" fill="#0168bc"/>
          <path id="Path_60244" data-name="Path 60244" d="M114.785,289.222l-5.322-3.072,5.321-3.072,5.322,3.072Z" fill="#0168bc" opacity="0.1"/>
          <path id="Path_60245" data-name="Path 60245" d="M125.428,295.367l-5.321-3.072,5.321-3.072,5.321,3.072Z" fill="#0168bc"/>
          <path id="Path_60246" data-name="Path 60246" d="M136.071,301.511l-5.322-3.072,5.321-3.072,5.322,3.072Z" fill="#0168bc"/>
          <path id="Path_60247" data-name="Path 60247" d="M146.714,307.656l-5.322-3.072,5.321-3.072,5.322,3.072Z" fill="#0168bc"/>
          <path id="Path_60248" data-name="Path 60248" d="M157.357,313.8l-5.322-3.072,5.321-3.072,5.322,3.072Z" fill="#0168bc"/>
        </g>
        <g id="Group_3082" data-name="Group 3082">
          <path id="Path_60249" data-name="Path 60249" d="M61.526,270.812,56.2,267.74l5.321-3.072,5.322,3.072Z" fill="#0168bc"/>
          <path id="Path_60250" data-name="Path 60250" d="M72.169,276.957l-5.321-3.072,5.321-3.072,5.322,3.072Z" fill="#0168bc"/>
          <path id="Path_60251" data-name="Path 60251" d="M82.812,283.1l-5.322-3.072,5.321-3.072,5.321,3.072Z" fill="#0168bc" opacity="0.4"/>
          <path id="Path_60252" data-name="Path 60252" d="M93.455,289.247l-5.321-3.072,5.321-3.072,5.322,3.072Z" fill="#0168bc"/>
          <path id="Path_60253" data-name="Path 60253" d="M104.1,295.392l-5.321-3.072,5.321-3.072,5.322,3.072Z" fill="#0168bc"/>
          <path id="Path_60254" data-name="Path 60254" d="M114.742,301.536l-5.322-3.072,5.321-3.072,5.321,3.072Z" fill="#0168bc" opacity="0.1"/>
          <path id="Path_60255" data-name="Path 60255" d="M125.384,307.681l-5.321-3.072,5.321-3.072,5.322,3.072Z" fill="#0168bc" opacity="0.4"/>
          <path id="Path_60256" data-name="Path 60256" d="M136.028,313.826l-5.322-3.072,5.321-3.072,5.322,3.072Z" fill="#0168bc"/>
          <path id="Path_60257" data-name="Path 60257" d="M146.671,319.97l-5.321-3.072,5.321-3.072,5.322,3.072Z" fill="#0168bc" opacity="0.1"/>
        </g>
        <g id="Group_3083" data-name="Group 3083">
          <path id="Path_60258" data-name="Path 60258" d="M50.84,276.982l-5.321-3.072,5.321-3.072,5.321,3.072Z" fill="#0168bc"/>
          <path id="Path_60259" data-name="Path 60259" d="M61.483,283.127l-5.321-3.072,5.321-3.072,5.321,3.072Z" fill="#0168bc" opacity="0.4"/>
          <path id="Path_60260" data-name="Path 60260" d="M72.126,289.272,66.8,286.2l5.321-3.072,5.322,3.072Z" fill="#0168bc"/>
          <path id="Path_60261" data-name="Path 60261" d="M82.769,295.416l-5.322-3.072,5.321-3.072,5.322,3.072Z" fill="#0168bc"/>
          <path id="Path_60262" data-name="Path 60262" d="M93.412,301.561l-5.322-3.072,5.321-3.072,5.322,3.072Z" fill="#0168bc"/>
          <path id="Path_60263" data-name="Path 60263" d="M104.055,307.706l-5.322-3.072,5.321-3.072,5.322,3.072Z" fill="#0168bc"/>
          <path id="Path_60264" data-name="Path 60264" d="M114.7,313.851l-5.322-3.072,5.321-3.072,5.322,3.072Z" fill="#0168bc"/>
          <path id="Path_60265" data-name="Path 60265" d="M125.341,320l-5.322-3.072,5.321-3.072,5.321,3.072Z" fill="#0168bc" opacity="0.4"/>
          <path id="Path_60266" data-name="Path 60266" d="M135.984,326.14l-5.322-3.072L135.984,320l5.322,3.072Z" fill="#0168bc"/>
        </g>
        <g id="Group_3084" data-name="Group 3084">
          <path id="Path_60267" data-name="Path 60267" d="M40.154,283.152l-5.321-3.072,5.321-3.072,5.321,3.072Z" fill="#0168bc"/>
          <path id="Path_60268" data-name="Path 60268" d="M50.8,289.3l-5.322-3.072,5.321-3.072,5.321,3.072Z" fill="#0168bc" opacity="0.1"/>
          <path id="Path_60269" data-name="Path 60269" d="M61.44,295.441l-5.322-3.072L61.44,289.3l5.322,3.072Z" fill="#0168bc"/>
          <path id="Path_60270" data-name="Path 60270" d="M72.083,301.586l-5.322-3.072,5.321-3.072,5.322,3.072Z" fill="#0168bc"/>
          <path id="Path_60271" data-name="Path 60271" d="M82.726,307.731,77.4,304.658l5.321-3.072,5.322,3.072Z" fill="#0168bc"/>
          <path id="Path_60272" data-name="Path 60272" d="M93.369,313.875,88.048,310.8l5.321-3.072,5.321,3.072Z" fill="#0168bc"/>
          <path id="Path_60273" data-name="Path 60273" d="M104.012,320.02l-5.322-3.072,5.321-3.072,5.322,3.072Z" fill="#0168bc" opacity="0.4"/>
          <path id="Path_60274" data-name="Path 60274" d="M114.655,326.165l-5.321-3.072,5.321-3.072,5.322,3.072Z" fill="#0168bc"/>
          <path id="Path_60275" data-name="Path 60275" d="M125.3,332.31l-5.322-3.072,5.321-3.072,5.322,3.072Z" fill="#0168bc"/>
        </g>
      </g>
      <g id="Group_3095" data-name="Group 3095">
        <g id="Group_3086" data-name="Group 3086">
          <path id="Path_60276" data-name="Path 60276" d="M314.846,233.795l-5.321-3.072,5.321-3.072,5.322,3.072Z" fill="#0168bc"/>
          <path id="Path_60277" data-name="Path 60277" d="M325.489,239.939l-5.322-3.072,5.321-3.072,5.322,3.072Z" fill="#0168bc" opacity="0.1"/>
          <path id="Path_60278" data-name="Path 60278" d="M336.132,246.084l-5.322-3.072,5.321-3.072,5.322,3.072Z" fill="#0168bc" opacity="0.4"/>
          <path id="Path_60279" data-name="Path 60279" d="M346.775,252.229l-5.322-3.072,5.321-3.072,5.322,3.072Z" fill="#0168bc"/>
          <path id="Path_60280" data-name="Path 60280" d="M357.418,258.374,352.1,255.3l5.321-3.072,5.322,3.072Z" fill="#0168bc" opacity="0.4"/>
          <path id="Path_60281" data-name="Path 60281" d="M368.061,264.518l-5.322-3.072,5.321-3.072,5.322,3.072Z" fill="#0168bc"/>
          <path id="Path_60282" data-name="Path 60282" d="M378.7,270.663l-5.322-3.072,5.321-3.072,5.322,3.072Z" fill="#0168bc"/>
          <path id="Path_60283" data-name="Path 60283" d="M389.347,276.808l-5.322-3.072,5.321-3.072,5.322,3.072Z" fill="#0168bc"/>
          <path id="Path_60284" data-name="Path 60284" d="M399.99,282.953l-5.322-3.072,5.321-3.072,5.322,3.072Z" fill="#0168bc" opacity="0.1"/>
        </g>
        <g id="Group_3087" data-name="Group 3087">
          <path id="Path_60285" data-name="Path 60285" d="M304.16,239.964l-5.322-3.072,5.321-3.072,5.322,3.072Z" fill="#0168bc"/>
          <path id="Path_60286" data-name="Path 60286" d="M314.8,246.109l-5.322-3.072,5.321-3.072,5.322,3.072Z" fill="#0168bc"/>
          <path id="Path_60287" data-name="Path 60287" d="M325.446,252.254l-5.322-3.072,5.321-3.072,5.322,3.072Z" fill="#0168bc"/>
          <path id="Path_60288" data-name="Path 60288" d="M336.089,258.4l-5.322-3.072,5.321-3.072,5.322,3.072Z" fill="#0168bc"/>
          <path id="Path_60289" data-name="Path 60289" d="M346.732,264.543l-5.322-3.072,5.321-3.072,5.322,3.072Z" fill="#0168bc"/>
          <path id="Path_60290" data-name="Path 60290" d="M357.375,270.688l-5.322-3.072,5.321-3.072,5.322,3.072Z" fill="#0168bc"/>
          <path id="Path_60291" data-name="Path 60291" d="M368.018,276.833,362.7,273.76l5.321-3.072,5.321,3.072Z" fill="#0168bc"/>
          <path id="Path_60292" data-name="Path 60292" d="M378.661,282.978l-5.322-3.072,5.321-3.072,5.322,3.072Z" fill="#0168bc"/>
          <path id="Path_60293" data-name="Path 60293" d="M389.3,289.122l-5.322-3.072,5.321-3.072,5.322,3.072Z" fill="#0168bc"/>
        </g>
        <g id="Group_3088" data-name="Group 3088">
          <path id="Path_60294" data-name="Path 60294" d="M293.474,246.134l-5.322-3.072,5.321-3.072,5.322,3.072Z" fill="#0168bc"/>
          <path id="Path_60295" data-name="Path 60295" d="M304.117,252.279l-5.322-3.072,5.321-3.072,5.322,3.072Z" fill="#0168bc"/>
          <path id="Path_60296" data-name="Path 60296" d="M314.76,258.423l-5.322-3.072,5.321-3.072,5.321,3.072Z" fill="#0168bc"/>
          <path id="Path_60297" data-name="Path 60297" d="M325.4,264.568l-5.322-3.072,5.321-3.072,5.322,3.072Z" fill="#0168bc" opacity="0.1"/>
          <path id="Path_60298" data-name="Path 60298" d="M336.046,270.713l-5.322-3.072,5.321-3.072,5.322,3.072Z" fill="#0168bc" opacity="0.4"/>
          <path id="Path_60299" data-name="Path 60299" d="M346.689,276.858l-5.322-3.072,5.321-3.072,5.322,3.072Z" fill="#0168bc" opacity="0.4"/>
          <path id="Path_60300" data-name="Path 60300" d="M357.332,283l-5.322-3.072,5.321-3.072,5.322,3.072Z" fill="#0168bc"/>
          <path id="Path_60301" data-name="Path 60301" d="M367.975,289.147l-5.322-3.072L367.975,283l5.322,3.072Z" fill="#0168bc"/>
          <path id="Path_60302" data-name="Path 60302" d="M378.618,295.292,373.3,292.22l5.321-3.072,5.322,3.072Z" fill="#0168bc"/>
        </g>
        <g id="Group_3089" data-name="Group 3089">
          <path id="Path_60303" data-name="Path 60303" d="M282.788,252.3l-5.322-3.072,5.321-3.072,5.321,3.072Z" fill="#0168bc" opacity="0.4"/>
          <path id="Path_60304" data-name="Path 60304" d="M293.431,258.448l-5.322-3.072,5.321-3.072,5.322,3.072Z" fill="#0168bc" opacity="0.4"/>
          <path id="Path_60305" data-name="Path 60305" d="M304.074,264.593l-5.322-3.072,5.321-3.072,5.322,3.072Z" fill="#0168bc" opacity="0.1"/>
          <path id="Path_60306" data-name="Path 60306" d="M314.717,270.738l-5.322-3.072,5.321-3.072,5.322,3.072Z" fill="#0168bc"/>
          <path id="Path_60307" data-name="Path 60307" d="M325.36,276.883l-5.322-3.072,5.321-3.072,5.322,3.072Z" fill="#0168bc"/>
          <path id="Path_60308" data-name="Path 60308" d="M336,283.027l-5.322-3.072L336,276.883l5.322,3.072Z" fill="#0168bc"/>
          <path id="Path_60309" data-name="Path 60309" d="M346.646,289.172l-5.322-3.072,5.321-3.072,5.322,3.072Z" fill="#0168bc" opacity="0.4"/>
          <path id="Path_60310" data-name="Path 60310" d="M357.289,295.317l-5.322-3.072,5.321-3.072,5.322,3.072Z" fill="#0168bc"/>
          <path id="Path_60311" data-name="Path 60311" d="M367.932,301.462l-5.321-3.072,5.321-3.072,5.322,3.072Z" fill="#0168bc"/>
        </g>
        <g id="Group_3090" data-name="Group 3090">
          <path id="Path_60312" data-name="Path 60312" d="M272.1,258.473,266.78,255.4l5.321-3.072,5.322,3.072Z" fill="#0168bc"/>
          <path id="Path_60313" data-name="Path 60313" d="M282.745,264.618l-5.322-3.072,5.321-3.072,5.322,3.072Z" fill="#0168bc"/>
          <path id="Path_60314" data-name="Path 60314" d="M293.388,270.763l-5.322-3.072,5.321-3.072,5.322,3.072Z" fill="#0168bc"/>
          <path id="Path_60315" data-name="Path 60315" d="M304.031,276.907l-5.322-3.072,5.321-3.072,5.322,3.072Z" fill="#0168bc"/>
          <path id="Path_60316" data-name="Path 60316" d="M314.674,283.052l-5.322-3.072,5.321-3.072,5.322,3.072Z" fill="#0168bc"/>
          <path id="Path_60317" data-name="Path 60317" d="M325.317,289.2,320,286.125l5.321-3.072,5.322,3.072Z" fill="#0168bc"/>
          <path id="Path_60318" data-name="Path 60318" d="M335.96,295.342l-5.321-3.072,5.321-3.072,5.322,3.072Z" fill="#0168bc"/>
          <path id="Path_60319" data-name="Path 60319" d="M346.6,301.487l-5.322-3.072,5.321-3.072,5.322,3.072Z" fill="#0168bc"/>
          <path id="Path_60320" data-name="Path 60320" d="M357.246,307.631l-5.322-3.072,5.321-3.072,5.322,3.072Z" fill="#0168bc"/>
        </g>
        <g id="Group_3091" data-name="Group 3091">
          <path id="Path_60321" data-name="Path 60321" d="M261.415,264.643l-5.322-3.072,5.321-3.072,5.322,3.072Z" fill="#0168bc"/>
          <path id="Path_60322" data-name="Path 60322" d="M272.058,270.788l-5.322-3.072,5.321-3.072,5.322,3.072Z" fill="#0168bc"/>
          <path id="Path_60323" data-name="Path 60323" d="M282.7,276.932l-5.321-3.072,5.321-3.072,5.322,3.072Z" fill="#0168bc" opacity="0.4"/>
          <path id="Path_60324" data-name="Path 60324" d="M293.344,283.077,288.023,280l5.321-3.072L298.666,280Z" fill="#0168bc"/>
          <path id="Path_60325" data-name="Path 60325" d="M303.987,289.222l-5.322-3.072,5.321-3.072,5.322,3.072Z" fill="#0168bc" opacity="0.1"/>
          <path id="Path_60326" data-name="Path 60326" d="M314.63,295.367l-5.322-3.072,5.321-3.072,5.322,3.072Z" fill="#0168bc"/>
          <path id="Path_60327" data-name="Path 60327" d="M325.274,301.511l-5.322-3.072,5.321-3.072,5.322,3.072Z" fill="#0168bc"/>
          <path id="Path_60328" data-name="Path 60328" d="M335.917,307.656l-5.322-3.072,5.321-3.072,5.322,3.072Z" fill="#0168bc"/>
          <path id="Path_60329" data-name="Path 60329" d="M346.56,313.8l-5.322-3.072,5.321-3.072,5.322,3.072Z" fill="#0168bc"/>
        </g>
        <g id="Group_3092" data-name="Group 3092">
          <path id="Path_60330" data-name="Path 60330" d="M250.729,270.812l-5.322-3.072,5.321-3.072,5.322,3.072Z" fill="#0168bc"/>
          <path id="Path_60331" data-name="Path 60331" d="M261.372,276.957l-5.322-3.072,5.321-3.072,5.322,3.072Z" fill="#0168bc"/>
          <path id="Path_60332" data-name="Path 60332" d="M272.015,283.1l-5.322-3.072,5.321-3.072,5.322,3.072Z" fill="#0168bc" opacity="0.4"/>
          <path id="Path_60333" data-name="Path 60333" d="M282.658,289.247l-5.322-3.072,5.321-3.072,5.322,3.072Z" fill="#0168bc"/>
          <path id="Path_60334" data-name="Path 60334" d="M293.3,295.392l-5.322-3.072,5.321-3.072,5.322,3.072Z" fill="#0168bc"/>
          <path id="Path_60335" data-name="Path 60335" d="M303.944,301.536l-5.322-3.072,5.321-3.072,5.322,3.072Z" fill="#0168bc" opacity="0.1"/>
          <path id="Path_60336" data-name="Path 60336" d="M314.587,307.681l-5.322-3.072,5.321-3.072,5.322,3.072Z" fill="#0168bc" opacity="0.4"/>
          <path id="Path_60337" data-name="Path 60337" d="M325.23,313.826l-5.322-3.072,5.321-3.072,5.322,3.072Z" fill="#0168bc"/>
          <path id="Path_60338" data-name="Path 60338" d="M335.874,319.97l-5.322-3.072,5.321-3.072,5.321,3.072Z" fill="#0168bc" opacity="0.1"/>
        </g>
        <g id="Group_3093" data-name="Group 3093">
          <path id="Path_60339" data-name="Path 60339" d="M240.043,276.982l-5.322-3.072,5.321-3.072,5.322,3.072Z" fill="#0168bc"/>
          <path id="Path_60340" data-name="Path 60340" d="M250.686,283.127l-5.322-3.072,5.321-3.072,5.322,3.072Z" fill="#0168bc" opacity="0.4"/>
          <path id="Path_60341" data-name="Path 60341" d="M261.329,289.272l-5.322-3.072,5.321-3.072,5.322,3.072Z" fill="#0168bc"/>
          <path id="Path_60342" data-name="Path 60342" d="M271.972,295.416l-5.322-3.072,5.321-3.072,5.322,3.072Z" fill="#0168bc"/>
          <path id="Path_60343" data-name="Path 60343" d="M282.615,301.561l-5.322-3.072,5.321-3.072,5.322,3.072Z" fill="#0168bc"/>
          <path id="Path_60344" data-name="Path 60344" d="M293.258,307.706l-5.322-3.072,5.321-3.072,5.322,3.072Z" fill="#0168bc"/>
          <path id="Path_60345" data-name="Path 60345" d="M303.9,313.851l-5.322-3.072,5.321-3.072,5.321,3.072Z" fill="#0168bc"/>
          <path id="Path_60346" data-name="Path 60346" d="M314.544,320l-5.322-3.072,5.321-3.072,5.322,3.072Z" fill="#0168bc" opacity="0.4"/>
          <path id="Path_60347" data-name="Path 60347" d="M325.187,326.14l-5.322-3.072L325.187,320l5.322,3.072Z" fill="#0168bc"/>
        </g>
        <g id="Group_3094" data-name="Group 3094">
          <path id="Path_60348" data-name="Path 60348" d="M229.357,283.152l-5.322-3.072,5.321-3.072,5.322,3.072Z" fill="#0168bc"/>
          <path id="Path_60349" data-name="Path 60349" d="M240,289.3l-5.322-3.072L240,283.152l5.322,3.072Z" fill="#0168bc" opacity="0.1"/>
          <path id="Path_60350" data-name="Path 60350" d="M250.643,295.441l-5.322-3.072,5.321-3.072,5.322,3.072Z" fill="#0168bc"/>
          <path id="Path_60351" data-name="Path 60351" d="M261.286,301.586l-5.322-3.072,5.321-3.072,5.322,3.072Z" fill="#0168bc"/>
          <path id="Path_60352" data-name="Path 60352" d="M271.929,307.731l-5.322-3.072,5.321-3.072,5.322,3.072Z" fill="#0168bc"/>
          <path id="Path_60353" data-name="Path 60353" d="M282.572,313.875l-5.322-3.072,5.321-3.072,5.322,3.072Z" fill="#0168bc"/>
          <path id="Path_60354" data-name="Path 60354" d="M293.215,320.02l-5.322-3.072,5.321-3.072,5.322,3.072Z" fill="#0168bc" opacity="0.4"/>
          <path id="Path_60355" data-name="Path 60355" d="M303.858,326.165l-5.321-3.072,5.321-3.072,5.322,3.072Z" fill="#0168bc"/>
          <path id="Path_60356" data-name="Path 60356" d="M314.5,332.31l-5.322-3.072,5.321-3.072,5.322,3.072Z" fill="#0168bc"/>
        </g>
      </g>
      <g id="Group_3105" data-name="Group 3105">
        <g id="Group_3096" data-name="Group 3096">
          <path id="Path_60357" data-name="Path 60357" d="M220.477,178.293l-5.322-3.072,5.321-3.072,5.322,3.072Z" fill="#0168bc"/>
          <path id="Path_60358" data-name="Path 60358" d="M231.12,184.438l-5.322-3.072,5.321-3.072,5.321,3.072Z" fill="#0168bc" opacity="0.1"/>
          <path id="Path_60359" data-name="Path 60359" d="M241.763,190.582l-5.321-3.072,5.321-3.072,5.322,3.072Z" fill="#0168bc" opacity="0.4"/>
          <path id="Path_60360" data-name="Path 60360" d="M252.406,196.727l-5.322-3.072,5.321-3.072,5.321,3.072Z" fill="#0168bc"/>
          <path id="Path_60361" data-name="Path 60361" d="M263.049,202.872l-5.322-3.072,5.321-3.072,5.322,3.072Z" fill="#0168bc" opacity="0.4"/>
          <path id="Path_60362" data-name="Path 60362" d="M273.692,209.016l-5.321-3.072,5.321-3.072,5.322,3.072Z" fill="#0168bc"/>
          <path id="Path_60363" data-name="Path 60363" d="M284.335,215.161l-5.322-3.072,5.321-3.072,5.322,3.072Z" fill="#0168bc"/>
          <path id="Path_60364" data-name="Path 60364" d="M294.978,221.306l-5.322-3.072,5.321-3.072,5.322,3.072Z" fill="#0168bc"/>
          <path id="Path_60365" data-name="Path 60365" d="M305.621,227.451l-5.322-3.072,5.321-3.072,5.322,3.072Z" fill="#0168bc" opacity="0.1"/>
        </g>
        <g id="Group_3097" data-name="Group 3097">
          <path id="Path_60366" data-name="Path 60366" d="M209.791,184.462l-5.322-3.072,5.321-3.072,5.322,3.072Z" fill="#0168bc"/>
          <path id="Path_60367" data-name="Path 60367" d="M220.434,190.607l-5.322-3.072,5.321-3.072,5.322,3.072Z" fill="#0168bc"/>
          <path id="Path_60368" data-name="Path 60368" d="M231.077,196.752l-5.322-3.072,5.321-3.072,5.322,3.072Z" fill="#0168bc"/>
          <path id="Path_60369" data-name="Path 60369" d="M241.72,202.9l-5.322-3.072,5.321-3.072,5.322,3.072Z" fill="#0168bc"/>
          <path id="Path_60370" data-name="Path 60370" d="M252.363,209.041l-5.321-3.072,5.321-3.072,5.322,3.072Z" fill="#0168bc"/>
          <path id="Path_60371" data-name="Path 60371" d="M263.006,215.186l-5.322-3.072,5.321-3.072,5.322,3.072Z" fill="#0168bc"/>
          <path id="Path_60372" data-name="Path 60372" d="M273.649,221.331l-5.322-3.072,5.321-3.072,5.322,3.072Z" fill="#0168bc"/>
          <path id="Path_60373" data-name="Path 60373" d="M284.292,227.476,278.97,224.4l5.321-3.072,5.322,3.072Z" fill="#0168bc"/>
          <path id="Path_60374" data-name="Path 60374" d="M294.935,233.62l-5.322-3.072,5.321-3.072,5.322,3.072Z" fill="#0168bc"/>
        </g>
        <g id="Group_3098" data-name="Group 3098">
          <path id="Path_60375" data-name="Path 60375" d="M199.1,190.632l-5.322-3.072,5.321-3.072,5.322,3.072Z" fill="#0168bc"/>
          <path id="Path_60376" data-name="Path 60376" d="M209.748,196.777l-5.322-3.072,5.321-3.072,5.321,3.072Z" fill="#0168bc"/>
          <path id="Path_60377" data-name="Path 60377" d="M220.391,202.921l-5.321-3.072,5.321-3.072,5.322,3.072Z" fill="#0168bc"/>
          <path id="Path_60378" data-name="Path 60378" d="M231.034,209.066l-5.322-3.072,5.321-3.072,5.322,3.072Z" fill="#0168bc" opacity="0.1"/>
          <path id="Path_60379" data-name="Path 60379" d="M241.677,215.211l-5.322-3.072,5.321-3.072L247,212.139Z" fill="#0168bc" opacity="0.4"/>
          <path id="Path_60380" data-name="Path 60380" d="M252.32,221.356,247,218.283l5.321-3.072,5.322,3.072Z" fill="#0168bc" opacity="0.4"/>
          <path id="Path_60381" data-name="Path 60381" d="M262.963,227.5l-5.322-3.072,5.321-3.072,5.322,3.072Z" fill="#0168bc"/>
          <path id="Path_60382" data-name="Path 60382" d="M273.606,233.645l-5.322-3.072,5.321-3.072,5.321,3.072Z" fill="#0168bc"/>
          <path id="Path_60383" data-name="Path 60383" d="M284.249,239.79l-5.322-3.072,5.321-3.072,5.322,3.072Z" fill="#0168bc"/>
        </g>
        <g id="Group_3099" data-name="Group 3099">
          <path id="Path_60384" data-name="Path 60384" d="M188.418,196.8l-5.322-3.072,5.321-3.072,5.322,3.072Z" fill="#0168bc" opacity="0.4"/>
          <path id="Path_60385" data-name="Path 60385" d="M199.061,202.946l-5.322-3.072,5.321-3.072,5.322,3.072Z" fill="#0168bc" opacity="0.4"/>
          <path id="Path_60386" data-name="Path 60386" d="M209.7,209.091l-5.322-3.072,5.321-3.072,5.322,3.072Z" fill="#0168bc" opacity="0.1"/>
          <path id="Path_60387" data-name="Path 60387" d="M220.348,215.236l-5.322-3.072,5.321-3.072,5.322,3.072Z" fill="#0168bc"/>
          <path id="Path_60388" data-name="Path 60388" d="M230.991,221.381l-5.322-3.072,5.321-3.072,5.322,3.072Z" fill="#0168bc"/>
          <path id="Path_60389" data-name="Path 60389" d="M241.634,227.525l-5.322-3.072,5.321-3.072,5.322,3.072Z" fill="#0168bc"/>
          <path id="Path_60390" data-name="Path 60390" d="M252.277,233.67l-5.322-3.072,5.321-3.072L257.6,230.6Z" fill="#0168bc" opacity="0.4"/>
          <path id="Path_60391" data-name="Path 60391" d="M262.92,239.815l-5.322-3.072,5.321-3.072,5.322,3.072Z" fill="#0168bc"/>
          <path id="Path_60392" data-name="Path 60392" d="M273.563,245.96l-5.322-3.072,5.321-3.072,5.322,3.072Z" fill="#0168bc"/>
        </g>
        <g id="Group_3100" data-name="Group 3100">
          <path id="Path_60393" data-name="Path 60393" d="M177.732,202.971l-5.322-3.072,5.321-3.072,5.322,3.072Z" fill="#0168bc"/>
          <path id="Path_60394" data-name="Path 60394" d="M188.375,209.116l-5.322-3.072,5.321-3.072,5.322,3.072Z" fill="#0168bc"/>
          <path id="Path_60395" data-name="Path 60395" d="M199.018,215.261l-5.322-3.072,5.321-3.072,5.322,3.072Z" fill="#0168bc"/>
          <path id="Path_60396" data-name="Path 60396" d="M209.661,221.406l-5.322-3.072,5.321-3.072,5.322,3.072Z" fill="#0168bc"/>
          <path id="Path_60397" data-name="Path 60397" d="M220.3,227.55l-5.322-3.072,5.321-3.072,5.321,3.072Z" fill="#0168bc"/>
          <path id="Path_60398" data-name="Path 60398" d="M230.947,233.7l-5.321-3.072,5.321-3.072,5.322,3.072Z" fill="#0168bc"/>
          <path id="Path_60399" data-name="Path 60399" d="M241.59,239.84l-5.322-3.072,5.321-3.072,5.322,3.072Z" fill="#0168bc"/>
          <path id="Path_60400" data-name="Path 60400" d="M252.234,245.985l-5.322-3.072,5.321-3.072,5.322,3.072Z" fill="#0168bc"/>
          <path id="Path_60401" data-name="Path 60401" d="M262.877,252.129l-5.321-3.072,5.321-3.072,5.322,3.072Z" fill="#0168bc"/>
        </g>
        <g id="Group_3101" data-name="Group 3101">
          <path id="Path_60402" data-name="Path 60402" d="M167.046,209.141l-5.322-3.072L167.046,203l5.321,3.072Z" fill="#0168bc"/>
          <path id="Path_60403" data-name="Path 60403" d="M177.689,215.286l-5.321-3.072,5.321-3.072,5.322,3.072Z" fill="#0168bc"/>
          <path id="Path_60404" data-name="Path 60404" d="M188.332,221.43l-5.322-3.072,5.321-3.072,5.321,3.072Z" fill="#0168bc" opacity="0.4"/>
          <path id="Path_60405" data-name="Path 60405" d="M198.975,227.575l-5.322-3.072,5.321-3.072L204.3,224.5Z" fill="#0168bc"/>
          <path id="Path_60406" data-name="Path 60406" d="M209.618,233.72l-5.322-3.072,5.321-3.072,5.322,3.072Z" fill="#0168bc" opacity="0.1"/>
          <path id="Path_60407" data-name="Path 60407" d="M220.261,239.865l-5.322-3.072,5.321-3.072,5.322,3.072Z" fill="#0168bc"/>
          <path id="Path_60408" data-name="Path 60408" d="M230.9,246.01l-5.322-3.072,5.321-3.072,5.322,3.072Z" fill="#0168bc"/>
          <path id="Path_60409" data-name="Path 60409" d="M241.548,252.154l-5.322-3.072,5.321-3.072,5.322,3.072Z" fill="#0168bc"/>
          <path id="Path_60410" data-name="Path 60410" d="M252.191,258.3l-5.322-3.072,5.321-3.072,5.322,3.072Z" fill="#0168bc"/>
        </g>
        <g id="Group_3102" data-name="Group 3102">
          <path id="Path_60411" data-name="Path 60411" d="M156.36,215.311l-5.322-3.072,5.321-3.072,5.322,3.072Z" fill="#0168bc"/>
          <path id="Path_60412" data-name="Path 60412" d="M167,221.455l-5.322-3.072L167,215.311l5.322,3.072Z" fill="#0168bc"/>
          <path id="Path_60413" data-name="Path 60413" d="M177.646,227.6l-5.322-3.072,5.321-3.072,5.322,3.072Z" fill="#0168bc" opacity="0.4"/>
          <path id="Path_60414" data-name="Path 60414" d="M188.289,233.745l-5.322-3.072,5.321-3.072,5.322,3.072Z" fill="#0168bc"/>
          <path id="Path_60415" data-name="Path 60415" d="M198.932,239.89l-5.322-3.072,5.321-3.072,5.322,3.072Z" fill="#0168bc"/>
          <path id="Path_60416" data-name="Path 60416" d="M209.575,246.034l-5.322-3.072,5.321-3.072,5.322,3.072Z" fill="#0168bc" opacity="0.1"/>
          <path id="Path_60417" data-name="Path 60417" d="M220.218,252.179l-5.322-3.072,5.321-3.072,5.322,3.072Z" fill="#0168bc" opacity="0.4"/>
          <path id="Path_60418" data-name="Path 60418" d="M230.861,258.324l-5.322-3.072,5.321-3.072,5.321,3.072Z" fill="#0168bc"/>
          <path id="Path_60419" data-name="Path 60419" d="M241.5,264.469l-5.321-3.072,5.321-3.072,5.322,3.072Z" fill="#0168bc" opacity="0.1"/>
        </g>
        <g id="Group_3103" data-name="Group 3103">
          <path id="Path_60420" data-name="Path 60420" d="M145.674,221.48l-5.322-3.072,5.321-3.072L151,218.408Z" fill="#0168bc"/>
          <path id="Path_60421" data-name="Path 60421" d="M156.317,227.625,151,224.553l5.321-3.072,5.322,3.072Z" fill="#0168bc" opacity="0.4"/>
          <path id="Path_60422" data-name="Path 60422" d="M166.96,233.77l-5.322-3.072,5.321-3.072,5.322,3.072Z" fill="#0168bc"/>
          <path id="Path_60423" data-name="Path 60423" d="M177.6,239.915l-5.322-3.072,5.321-3.072,5.321,3.072Z" fill="#0168bc"/>
          <path id="Path_60424" data-name="Path 60424" d="M188.246,246.059l-5.321-3.072,5.321-3.072,5.322,3.072Z" fill="#0168bc"/>
          <path id="Path_60425" data-name="Path 60425" d="M198.889,252.2l-5.322-3.072,5.321-3.072,5.321,3.072Z" fill="#0168bc"/>
          <path id="Path_60426" data-name="Path 60426" d="M209.532,258.349l-5.322-3.072,5.321-3.072,5.322,3.072Z" fill="#0168bc"/>
          <path id="Path_60427" data-name="Path 60427" d="M220.175,264.493l-5.322-3.072,5.321-3.072,5.322,3.072Z" fill="#0168bc" opacity="0.4"/>
          <path id="Path_60428" data-name="Path 60428" d="M230.818,270.638l-5.322-3.072,5.321-3.072,5.322,3.072Z" fill="#0168bc"/>
        </g>
        <g id="Group_3104" data-name="Group 3104">
          <path id="Path_60429" data-name="Path 60429" d="M134.988,227.65l-5.321-3.072,5.321-3.072,5.322,3.072Z" fill="#0168bc"/>
          <path id="Path_60430" data-name="Path 60430" d="M145.631,233.795l-5.322-3.072,5.321-3.072,5.321,3.072Z" fill="#0168bc" opacity="0.1"/>
          <path id="Path_60431" data-name="Path 60431" d="M156.274,239.939l-5.322-3.072,5.321-3.072,5.322,3.072Z" fill="#0168bc"/>
          <path id="Path_60432" data-name="Path 60432" d="M166.917,246.084l-5.322-3.072,5.321-3.072,5.322,3.072Z" fill="#0168bc"/>
          <path id="Path_60433" data-name="Path 60433" d="M177.56,252.229l-5.322-3.072,5.321-3.072,5.322,3.072Z" fill="#0168bc"/>
          <path id="Path_60434" data-name="Path 60434" d="M188.2,258.374l-5.322-3.072,5.321-3.072,5.322,3.072Z" fill="#0168bc"/>
          <path id="Path_60435" data-name="Path 60435" d="M198.846,264.518l-5.321-3.072,5.321-3.072,5.322,3.072Z" fill="#0168bc" opacity="0.4"/>
          <path id="Path_60436" data-name="Path 60436" d="M209.489,270.663l-5.322-3.072,5.321-3.072,5.322,3.072Z" fill="#0168bc"/>
          <path id="Path_60437" data-name="Path 60437" d="M220.132,276.808l-5.322-3.072,5.321-3.072,5.322,3.072Z" fill="#0168bc"/>
        </g>
      </g>
      <g id="Group_3115" data-name="Group 3115">
        <g id="Group_3106" data-name="Group 3106">
          <path id="Path_60438" data-name="Path 60438" d="M220.477,289.1l-5.322-3.072,5.321-3.072,5.322,3.072Z" fill="#0168bc"/>
          <path id="Path_60439" data-name="Path 60439" d="M231.12,295.242,225.8,292.17l5.321-3.072,5.321,3.072Z" fill="#0168bc" opacity="0.1"/>
          <path id="Path_60440" data-name="Path 60440" d="M241.763,301.387l-5.321-3.072,5.321-3.072,5.322,3.072Z" fill="#0168bc" opacity="0.4"/>
          <path id="Path_60441" data-name="Path 60441" d="M252.406,307.532l-5.322-3.072,5.321-3.072,5.321,3.072Z" fill="#0168bc"/>
          <path id="Path_60442" data-name="Path 60442" d="M263.049,313.676l-5.322-3.072,5.321-3.072,5.322,3.072Z" fill="#0168bc" opacity="0.4"/>
          <path id="Path_60443" data-name="Path 60443" d="M273.692,319.821l-5.321-3.072,5.321-3.072,5.322,3.072Z" fill="#0168bc"/>
          <path id="Path_60444" data-name="Path 60444" d="M284.335,325.966l-5.322-3.072,5.321-3.072,5.322,3.072Z" fill="#0168bc"/>
          <path id="Path_60445" data-name="Path 60445" d="M294.978,332.111l-5.322-3.072,5.321-3.072,5.322,3.072Z" fill="#0168bc"/>
          <path id="Path_60446" data-name="Path 60446" d="M305.621,338.255l-5.322-3.072,5.321-3.072,5.322,3.072Z" fill="#0168bc" opacity="0.1"/>
        </g>
        <g id="Group_3107" data-name="Group 3107">
          <path id="Path_60447" data-name="Path 60447" d="M209.791,295.267l-5.322-3.072,5.321-3.072,5.322,3.072Z" fill="#0168bc"/>
          <path id="Path_60448" data-name="Path 60448" d="M220.434,301.412l-5.322-3.072,5.321-3.072,5.322,3.072Z" fill="#0168bc"/>
          <path id="Path_60449" data-name="Path 60449" d="M231.077,307.556l-5.322-3.072,5.321-3.072,5.322,3.072Z" fill="#0168bc"/>
          <path id="Path_60450" data-name="Path 60450" d="M241.72,313.7l-5.322-3.072,5.321-3.072,5.322,3.072Z" fill="#0168bc"/>
          <path id="Path_60451" data-name="Path 60451" d="M252.363,319.846l-5.321-3.072,5.321-3.072,5.322,3.072Z" fill="#0168bc"/>
          <path id="Path_60452" data-name="Path 60452" d="M263.006,325.991l-5.322-3.072,5.321-3.072,5.322,3.072Z" fill="#0168bc"/>
          <path id="Path_60453" data-name="Path 60453" d="M273.649,332.136l-5.322-3.072,5.321-3.072,5.322,3.072Z" fill="#0168bc"/>
          <path id="Path_60454" data-name="Path 60454" d="M284.292,338.28l-5.322-3.072,5.321-3.072,5.322,3.072Z" fill="#0168bc"/>
          <path id="Path_60455" data-name="Path 60455" d="M294.935,344.425l-5.322-3.072,5.321-3.072,5.322,3.072Z" fill="#0168bc"/>
        </g>
        <g id="Group_3108" data-name="Group 3108">
          <path id="Path_60456" data-name="Path 60456" d="M199.1,301.437l-5.322-3.072,5.321-3.072,5.322,3.072Z" fill="#0168bc"/>
          <path id="Path_60457" data-name="Path 60457" d="M209.748,307.581l-5.322-3.072,5.321-3.072,5.321,3.072Z" fill="#0168bc"/>
          <path id="Path_60458" data-name="Path 60458" d="M220.391,313.726l-5.321-3.072,5.321-3.072,5.322,3.072Z" fill="#0168bc"/>
          <path id="Path_60459" data-name="Path 60459" d="M231.034,319.871l-5.322-3.072,5.321-3.072,5.322,3.072Z" fill="#0168bc" opacity="0.1"/>
          <path id="Path_60460" data-name="Path 60460" d="M241.677,326.016l-5.322-3.072,5.321-3.072L247,322.943Z" fill="#0168bc" opacity="0.4"/>
          <path id="Path_60461" data-name="Path 60461" d="M252.32,332.16,247,329.088l5.321-3.072,5.322,3.072Z" fill="#0168bc" opacity="0.4"/>
          <path id="Path_60462" data-name="Path 60462" d="M262.963,338.305l-5.322-3.072,5.321-3.072,5.322,3.072Z" fill="#0168bc"/>
          <path id="Path_60463" data-name="Path 60463" d="M273.606,344.45l-5.322-3.072,5.321-3.072,5.321,3.072Z" fill="#0168bc"/>
          <path id="Path_60464" data-name="Path 60464" d="M284.249,350.595l-5.322-3.072,5.321-3.072,5.322,3.072Z" fill="#0168bc"/>
        </g>
        <g id="Group_3109" data-name="Group 3109">
          <path id="Path_60465" data-name="Path 60465" d="M188.418,307.606l-5.322-3.072,5.321-3.072,5.322,3.072Z" fill="#0168bc" opacity="0.4"/>
          <path id="Path_60466" data-name="Path 60466" d="M199.061,313.751l-5.322-3.072,5.321-3.072,5.322,3.072Z" fill="#0168bc" opacity="0.4"/>
          <path id="Path_60467" data-name="Path 60467" d="M209.7,319.9l-5.322-3.072,5.321-3.072,5.322,3.072Z" fill="#0168bc" opacity="0.1"/>
          <path id="Path_60468" data-name="Path 60468" d="M220.348,326.041l-5.322-3.072,5.321-3.072,5.322,3.072Z" fill="#0168bc"/>
          <path id="Path_60469" data-name="Path 60469" d="M230.991,332.185l-5.322-3.072,5.321-3.072,5.322,3.072Z" fill="#0168bc"/>
          <path id="Path_60470" data-name="Path 60470" d="M241.634,338.33l-5.322-3.072,5.321-3.072,5.322,3.072Z" fill="#0168bc"/>
          <path id="Path_60471" data-name="Path 60471" d="M252.277,344.475l-5.322-3.072,5.321-3.072L257.6,341.4Z" fill="#0168bc" opacity="0.4"/>
          <path id="Path_60472" data-name="Path 60472" d="M262.92,350.62l-5.322-3.072,5.321-3.072,5.322,3.072Z" fill="#0168bc"/>
          <path id="Path_60473" data-name="Path 60473" d="M273.563,356.764l-5.322-3.072,5.321-3.072,5.322,3.072Z" fill="#0168bc"/>
        </g>
        <g id="Group_3110" data-name="Group 3110">
          <path id="Path_60474" data-name="Path 60474" d="M177.732,313.776l-5.322-3.072,5.321-3.072,5.322,3.072Z" fill="#0168bc"/>
          <path id="Path_60475" data-name="Path 60475" d="M188.375,319.921l-5.322-3.072,5.321-3.072,5.322,3.072Z" fill="#0168bc"/>
          <path id="Path_60476" data-name="Path 60476" d="M199.018,326.065l-5.322-3.072,5.321-3.072,5.322,3.072Z" fill="#0168bc"/>
          <path id="Path_60477" data-name="Path 60477" d="M209.661,332.21l-5.322-3.072,5.321-3.072,5.322,3.072Z" fill="#0168bc"/>
          <path id="Path_60478" data-name="Path 60478" d="M220.3,338.355l-5.322-3.072,5.321-3.072,5.321,3.072Z" fill="#0168bc"/>
          <path id="Path_60479" data-name="Path 60479" d="M230.947,344.5l-5.321-3.072,5.321-3.072,5.322,3.072Z" fill="#0168bc"/>
          <path id="Path_60480" data-name="Path 60480" d="M241.59,350.645l-5.322-3.072,5.321-3.072,5.322,3.072Z" fill="#0168bc"/>
          <path id="Path_60481" data-name="Path 60481" d="M252.234,356.789l-5.322-3.072,5.321-3.072,5.322,3.072Z" fill="#0168bc"/>
          <path id="Path_60482" data-name="Path 60482" d="M262.877,362.934l-5.321-3.072,5.321-3.072,5.322,3.072Z" fill="#0168bc"/>
        </g>
        <g id="Group_3111" data-name="Group 3111">
          <path id="Path_60483" data-name="Path 60483" d="M167.046,319.946l-5.322-3.072,5.321-3.072,5.321,3.072Z" fill="#0168bc"/>
          <path id="Path_60484" data-name="Path 60484" d="M177.689,326.09l-5.321-3.072,5.321-3.072,5.322,3.072Z" fill="#0168bc"/>
          <path id="Path_60485" data-name="Path 60485" d="M188.332,332.235l-5.322-3.072,5.321-3.072,5.321,3.072Z" fill="#0168bc" opacity="0.4"/>
          <path id="Path_60486" data-name="Path 60486" d="M198.975,338.38l-5.322-3.072,5.321-3.072,5.322,3.072Z" fill="#0168bc"/>
          <path id="Path_60487" data-name="Path 60487" d="M209.618,344.525l-5.322-3.072,5.321-3.072,5.322,3.072Z" fill="#0168bc" opacity="0.1"/>
          <path id="Path_60488" data-name="Path 60488" d="M220.261,350.669,214.94,347.6l5.321-3.072,5.322,3.072Z" fill="#0168bc"/>
          <path id="Path_60489" data-name="Path 60489" d="M230.9,356.814l-5.322-3.072,5.321-3.072,5.322,3.072Z" fill="#0168bc"/>
          <path id="Path_60490" data-name="Path 60490" d="M241.548,362.959l-5.322-3.072,5.321-3.072,5.322,3.072Z" fill="#0168bc"/>
          <path id="Path_60491" data-name="Path 60491" d="M252.191,369.1l-5.322-3.072,5.321-3.072,5.322,3.072Z" fill="#0168bc"/>
        </g>
        <g id="Group_3112" data-name="Group 3112">
          <path id="Path_60492" data-name="Path 60492" d="M156.36,326.115l-5.322-3.072,5.321-3.072,5.322,3.072Z" fill="#0168bc"/>
          <path id="Path_60493" data-name="Path 60493" d="M167,332.26l-5.322-3.072L167,326.115l5.322,3.072Z" fill="#0168bc"/>
          <path id="Path_60494" data-name="Path 60494" d="M177.646,338.4l-5.322-3.072,5.321-3.072,5.322,3.072Z" fill="#0168bc" opacity="0.4"/>
          <path id="Path_60495" data-name="Path 60495" d="M188.289,344.549l-5.322-3.072,5.321-3.072,5.322,3.072Z" fill="#0168bc"/>
          <path id="Path_60496" data-name="Path 60496" d="M198.932,350.694l-5.322-3.072,5.321-3.072,5.322,3.072Z" fill="#0168bc"/>
          <path id="Path_60497" data-name="Path 60497" d="M209.575,356.839l-5.322-3.072,5.321-3.072,5.322,3.072Z" fill="#0168bc" opacity="0.1"/>
          <path id="Path_60498" data-name="Path 60498" d="M220.218,362.984l-5.322-3.072,5.321-3.072,5.322,3.072Z" fill="#0168bc" opacity="0.4"/>
          <path id="Path_60499" data-name="Path 60499" d="M230.861,369.129l-5.322-3.072,5.321-3.072,5.321,3.072Z" fill="#0168bc"/>
          <path id="Path_60500" data-name="Path 60500" d="M241.5,375.273l-5.321-3.072,5.321-3.072,5.322,3.072Z" fill="#0168bc" opacity="0.1"/>
        </g>
        <g id="Group_3113" data-name="Group 3113">
          <path id="Path_60501" data-name="Path 60501" d="M145.674,332.285l-5.322-3.072,5.321-3.072L151,329.212Z" fill="#0168bc"/>
          <path id="Path_60502" data-name="Path 60502" d="M156.317,338.43,151,335.357l5.321-3.072,5.322,3.072Z" fill="#0168bc" opacity="0.4"/>
          <path id="Path_60503" data-name="Path 60503" d="M166.96,344.574l-5.322-3.072,5.321-3.072,5.322,3.072Z" fill="#0168bc"/>
          <path id="Path_60504" data-name="Path 60504" d="M177.6,350.719l-5.322-3.072,5.321-3.072,5.321,3.072Z" fill="#0168bc"/>
          <path id="Path_60505" data-name="Path 60505" d="M188.246,356.864l-5.321-3.072,5.321-3.072,5.322,3.072Z" fill="#0168bc"/>
          <path id="Path_60506" data-name="Path 60506" d="M198.889,363.009l-5.322-3.072,5.321-3.072,5.321,3.072Z" fill="#0168bc"/>
          <path id="Path_60507" data-name="Path 60507" d="M209.532,369.153l-5.322-3.072,5.321-3.072,5.322,3.072Z" fill="#0168bc"/>
          <path id="Path_60508" data-name="Path 60508" d="M220.175,375.3l-5.322-3.072,5.321-3.072,5.322,3.072Z" fill="#0168bc" opacity="0.4"/>
          <path id="Path_60509" data-name="Path 60509" d="M230.818,381.443l-5.322-3.072,5.321-3.072,5.322,3.072Z" fill="#0168bc"/>
        </g>
        <g id="Group_3114" data-name="Group 3114">
          <path id="Path_60510" data-name="Path 60510" d="M134.988,338.454l-5.321-3.072,5.321-3.072,5.322,3.072Z" fill="#0168bc"/>
          <path id="Path_60511" data-name="Path 60511" d="M145.631,344.6l-5.322-3.072,5.321-3.072,5.321,3.072Z" fill="#0168bc" opacity="0.1"/>
          <path id="Path_60512" data-name="Path 60512" d="M156.274,350.744l-5.322-3.072,5.321-3.072,5.322,3.072Z" fill="#0168bc"/>
          <path id="Path_60513" data-name="Path 60513" d="M166.917,356.889l-5.322-3.072,5.321-3.072,5.322,3.072Z" fill="#0168bc"/>
          <path id="Path_60514" data-name="Path 60514" d="M177.56,363.034l-5.322-3.072,5.321-3.072,5.322,3.072Z" fill="#0168bc"/>
          <path id="Path_60515" data-name="Path 60515" d="M188.2,369.178l-5.322-3.072,5.321-3.072,5.322,3.072Z" fill="#0168bc"/>
          <path id="Path_60516" data-name="Path 60516" d="M198.846,375.323l-5.321-3.072,5.321-3.072,5.322,3.072Z" fill="#0168bc" opacity="0.4"/>
          <path id="Path_60517" data-name="Path 60517" d="M209.489,381.468l-5.322-3.072,5.321-3.072,5.322,3.072Z" fill="#0168bc"/>
          <path id="Path_60518" data-name="Path 60518" d="M220.132,387.613l-5.322-3.072,5.321-3.072,5.322,3.072Z" fill="#0168bc"/>
        </g>
      </g>
    </g>
    <path id="Path_60519" data-name="Path 60519" d="M301.374,231.551,98.2,276.688,148.439,305.7,160.7,352.281l27.522-23.619,34.976,20.194Z" fill="#0168bc" opacity="0.4"/>
    <g id="Group_3118" data-name="Group 3118">
      <path id="Path_60520" data-name="Path 60520" d="M156.39,310.133l197.7-169.664L173.614,264.555Z" fill="#6ca9d8"/>
      <g id="Group_3117" data-name="Group 3117">
        <path id="Path_60521" data-name="Path 60521" d="M354.088,140.469l-214.922,104.2L68.56,203.9Z" fill="#d6edff"/>
        <path id="Path_60522" data-name="Path 60522" d="M354.088,140.469,173.614,264.555l70.606,40.764Z" fill="#d6edff"/>
        <path id="Path_60523" data-name="Path 60523" d="M173.614,264.555,354.088,140.469l-214.922,104.2,17.224,65.468Z" fill="#afcee6"/>
      </g>
      <path id="Path_60524" data-name="Path 60524" d="M136.024,242.852,354.088,140.469l-214.922,104.2Z" fill="#fff"/>
      <path id="Path_60525" data-name="Path 60525" d="M173.614,264.555,354.088,140.469,176.436,266.184Z" fill="#fff"/>
    </g>
    <g id="Group_3120" data-name="Group 3120">
      <path id="Path_60526" data-name="Path 60526" d="M210.211,212.87a14.129,14.129,0,0,0-.689,2.819,12.265,12.265,0,0,0,1.74,2.763,13.249,13.249,0,0,0,2.918,2.565,8.1,8.1,0,0,1,1.738,1.231.739.739,0,0,0,.359-.125,3.485,3.485,0,0,0-.434-2.308c-.652-.753.323-1.872.323-1.872l-1.684-4.394Z" fill="#fcd1c5"/>
      <path id="Path_60527" data-name="Path 60527" d="M226.361,261.48a31.072,31.072,0,0,1-5.181.7c-2.546.087-9.49,1.4-9.355,3.888s3.69,6.084,8.2,6.624,10.335-.7,13.279-.61a4.063,4.063,0,0,0,3.924-5.579C236.14,263.74,226.361,261.48,226.361,261.48Z" fill="#09337a"/>
      <path id="Path_60528" data-name="Path 60528" d="M241.737,254.848s.931,1.511.437,2.431-1.81,3.212-5.889.973-11.966-5.442-11.966-5.442-4.531-2.375-4.233-5.154,4.505-2.329,4.505-2.329Z" fill="#09337a"/>
      <path id="Path_60529" data-name="Path 60529" d="M196.337,154.988a12.718,12.718,0,0,1-3.876-.5c-1.185-.536-4.63-1.666-4.844-1.78a11.816,11.816,0,0,1-2.98-.8.732.732,0,0,0-.2,1.259,4.767,4.767,0,0,0,2.217,1.042l1.364.8s-2.763,1.418-3.013,1.524-2.563,1.866-2.8,1.975-1.266.913-.866,1.625c0,0,.04.162.556.272,0,0-1.479.672-1.114,1.4s1.3.412,1.3.412.356,1.306,2.14.295c0,0,.209,1.619,4.169-.073a10.584,10.584,0,0,1,2.771-.34,12.837,12.837,0,0,0,6.068-1.945C198.935,158.955,196.337,154.988,196.337,154.988Z" fill="#fcd1c5"/>
      <path id="Path_60530" data-name="Path 60530" d="M191.163,162.1a12.837,12.837,0,0,0,6.068-1.945c1.147-.808.343-2.87-.3-4.13-.807-.392-1.518-.712-1.518-.712s.121,3.923.032,4.513-3.633,1.29-5.9,1.623a46.809,46.809,0,0,0-5.26,1.214c.176.358.936,1.136,4.116-.223A10.584,10.584,0,0,1,191.163,162.1Z" fill="#e2b1a6"/>
      <path id="Path_60531" data-name="Path 60531" d="M227.5,147.365s-5.6.98-7.506,1.588c-1.849.589-17.9,3.765-23.776,5.2a1.026,1.026,0,0,0-.747.776,2.2,2.2,0,0,0-.041.978c.165.663.728,7.31,3.989,6.224a45.6,45.6,0,0,1,6.156-1.231c2.3-.3,12.109-1.057,12.109-1.057l16.6-9.5Z" fill="#055a9f"/>
      <path id="Path_60532" data-name="Path 60532" d="M215.487,214.978s1.482,18.316,5.131,25.23c3.691,7,4.506,19.7,5.253,22.122s3.135,5.916,6.983,6.665,4.534-1.781,4.377-3.3-1.176-3.981-1.155-5.632a16.92,16.92,0,0,1,.51-3.173s4.4,1.28,5.151-2.038a9.059,9.059,0,0,1-.385-1.464c-.047-.495.667-12.567.809-14.034a60.374,60.374,0,0,0-1.641-13.355c-1.143-3.912-.549-12.238-.549-12.238l-12.74-1.859Z" fill="#07599c"/>
      <path id="Path_60533" data-name="Path 60533" d="M236.164,215.054a13.958,13.958,0,0,1-1.384,5.255s-.179,9.7-1.3,14.591c0,0,1.437,9.8,2.4,12.881.972,3.1.7,9.1.7,9.1a4.4,4.4,0,0,0,1.223.211c.722.029,1.037-11.888-.03-14s-1.705-11.479-1.223-14.339.511-11.023,1.1-12.465a1.8,1.8,0,0,0-.648-2.216Z" fill="#09337a"/>
      <path id="Path_60534" data-name="Path 60534" d="M226.655,147.517a9.3,9.3,0,0,0-3.721,7.343l2.817-.555S225.01,149.1,226.655,147.517Z" fill="#08518d"/>
      <path id="Path_60535" data-name="Path 60535" d="M226.78,218.968c8.454.324,13.094-3.3,13.094-3.3.044-1.159.1-1.915.1-1.915l-12.74-1.859-11.744,3.08s.294,3.626.942,8.261c2.076.235,4.2-4.724,4.2-4.724l5.807.409S218.313,218.644,226.78,218.968Z" fill="#09337a"/>
      <path id="Path_60536" data-name="Path 60536" d="M217.121,215.266s18.275,7.488,27.466-6.345a2.425,2.425,0,0,0,.386-1.37l-.036-3.259a3.375,3.375,0,0,1,.206-1.207h0a5.122,5.122,0,0,0,.245-2.605c-.6-3.661-2.246-13.654-2.622-16.437-.46-3.4,1.678-17.009,4.9-22.9,3.186-5.818-4.338-19.2-4.338-19.2a5.082,5.082,0,0,0-5.663-2.141s3.55,2.574,1.521,5.191c-2.042,2.632-8,4.661-8,4.661s-11.055,5.468-14.916,12.259a28.285,28.285,0,0,0-1.527,8.016c-.185,4.522.153,15.343-.061,16.838s-.95,11.726-.9,12.2S217.121,215.266,217.121,215.266Z" fill="#0168bc"/>
      <path id="Path_60537" data-name="Path 60537" d="M222.688,216.817s11.437-28.7,11.135-39.26c-.3-10.357-16.343,20.63-16.343,20.63l-.359,17.079A33.587,33.587,0,0,0,222.688,216.817Z" fill="#08589a"/>
      <path id="Path_60538" data-name="Path 60538" d="M217.38,182.643a46.845,46.845,0,0,0,.774-7.151c.116-4.164,1.419-11.073,9.044-9.759,10.748,1.852,5.837,16.671,4.608,19.244s-6.147,14.217-6.406,14.876c-.243.62-7.889,15.035-10.583,18.472a.661.661,0,0,1-.964.11c-1.056-.9-3.43-3.035-3.725-4.379-.38-1.729,1.259-7.985,1.259-7.985s4.425-15.707,4.789-16.439C216.449,189.083,216.674,186.485,217.38,182.643Z" fill="#055a9f"/>
      <path id="Path_60539" data-name="Path 60539" d="M226.835,147.86a3.812,3.812,0,0,0-2.815-2.2c-1.989-.235-3.111-.8-3.3-1.541a14.028,14.028,0,0,0-.648-2.728,20.152,20.152,0,0,1-.82-3.859c.009-.065-1.5-.546-1.565-1.213s.763-3.031.679-3.217a5.988,5.988,0,0,1-.747-2.793,13.942,13.942,0,0,1,.933-4.157c.629-1.38,5.024-9.782,15.989-5.2,11.036,4.616,2.38,13.78,3.35,19.82,0,0,.959,1.282-.893,3.4S229.884,146.688,226.835,147.86Z" fill="#fcd1c5"/>
      <path id="Path_60540" data-name="Path 60540" d="M237,144.179c1.852-2.118.893-3.4.893-3.4a8.3,8.3,0,0,1,.08-2.678l-4.361.751s-6.315-5.813-5.915-2.75c.4,3.082-1.168,3.584-1.168,3.584l1.286,1.692c.33.435.12.935-.164,1.4-1.889,3.1-6.322,2.087-6.332,2.088a6.362,6.362,0,0,0,2.7.795,3.812,3.812,0,0,1,2.815,2.2C229.884,146.688,235.139,146.307,237,144.179Z" fill="#e2b1a6"/>
      <g id="Group_3119" data-name="Group 3119">
        <path id="Path_60541" data-name="Path 60541" d="M218.129,122.926s-.811,2.252.424,3.229,2.356,1.9,2.356,1.9l-.055,2.866a2.131,2.131,0,0,0,.323,1.169l1.531,2.443a2.923,2.923,0,0,1,.443,1.582l-.013,1.167a.669.669,0,0,0,.578.677l.411.054a.665.665,0,0,0,.74-.586l.2-1.619s.847-1.289,2.628.3l1.61.693a1.742,1.742,0,0,1,.96,1.039c.43,1.254,1.354,3.728,2.071,4.148.971.568,4.806-1.322,5.331-2.178s1.929-6.61,2.783-9.356c.85-2.73.536-9.546-7.642-11.448S219.3,120.477,218.129,122.926Z" fill="#aa8383"/>
        <path id="Path_60542" data-name="Path 60542" d="M237.668,139.8c.524-.855,1.929-6.61,2.783-9.356a20.118,20.118,0,0,1-7.335,2.6c-4.132.554-12.222-4.232-12.222-4.232l-.04,2.1a2.131,2.131,0,0,0,.323,1.169l1.531,2.443a2.923,2.923,0,0,1,.443,1.582l-.013,1.167a.669.669,0,0,0,.578.677l.411.054a.665.665,0,0,0,.74-.586l.2-1.619s.847-1.289,2.628.3l2.329,1s1.343,4.311,2.312,4.878S237.143,140.66,237.668,139.8Z" fill="#936d6d"/>
      </g>
      <path id="Path_60543" data-name="Path 60543" d="M237.823,140.08s3.133,2,1.491,4.739-13.249,7.493-13.832,8.213c0,0-.379-4.142,1.173-5.515,0,0,8.849-1.564,10.264-3.781S237.823,140.08,237.823,140.08Z" fill="#f0f6ff"/>
      <path id="Path_60544" data-name="Path 60544" d="M237.823,140.08s.5,1.45-.9,3.656c-1.071,1.678-6.393,2.98-8.924,3.516h0s.927.543,2.441,3.218c3.574-1.767,7.915-4.045,8.878-5.651C240.956,142.083,237.823,140.08,237.823,140.08Z" fill="#c4ccd6"/>
      <path id="Path_60545" data-name="Path 60545" d="M231.883,168.149c2.8,9.027-4.932,22.829-6.079,26.855-1.156,4.059-12.774,22.7-12.776,22.7.312.285.6.536.825.727a.661.661,0,0,0,.964-.11c2.694-3.437,10.34-17.852,10.583-18.472.259-.659,5.171-12.289,6.406-14.876C232.792,182.913,236.154,172.931,231.883,168.149Z" fill="#08518d"/>
      <path id="Path_60546" data-name="Path 60546" d="M239.778,148.95s-5.179,2.834-7.7,4.111-5.29,2.991-5.29,2.991l-.941-.963-1.2,2.489a34.286,34.286,0,0,0-5.846,4.2,19.86,19.86,0,0,0-3.524,5.04s5.014-6.3,8.915-8.134l1.05-.5.625-1.975.931,1.011S238.181,150.661,239.778,148.95Z" fill="#08518d"/>
    </g>
    <ellipse id="Ellipse_2258" data-name="Ellipse 2258" cx="26.793" cy="15.469" rx="26.793" ry="15.469" transform="translate(114.245 191.974)" fill="#0168bc" opacity="0.2"/>
    <path id="Path_60630" data-name="Path 60630" d="M26.793,0c14.8,0,26.793,6.926,26.793,15.469s-12,15.469-26.793,15.469S0,24.012,0,15.469,12,0,26.793,0Z" transform="translate(199.862 243.735)" fill="#055a9f" opacity="0.2"/>
    <g id="Group_3122" data-name="Group 3122">
      <g id="Group_3121" data-name="Group 3121">
        <path id="Path_60547" data-name="Path 60547" d="M156.73,149.557a6.394,6.394,0,0,0,2.636-.032,6.677,6.677,0,0,1,4.687.16,7.35,7.35,0,0,0,2.805.73,9.191,9.191,0,0,1,2.661.452c.446.282,1.294.819.509,1.94s-3.725.067-4.2-.022-1,.759-.764,1.521,4.668,5.608,5.363,6.09,3.688,2.484,3.818,3.273-.038.9-.038.9.873.79.565,1.522-1.668-.39-1.919-.221c0,0,.221.814-.111.964a5.991,5.991,0,0,1-2.508-.839s-.225.626-1.334-.022-5.357-3.061-5.855-3.517a30.073,30.073,0,0,0-2.859-2.416,23.276,23.276,0,0,1-2.467-2.375,14.763,14.763,0,0,0-4.236-2.082C152.473,155.393,156.73,149.557,156.73,149.557Z" fill="#fcd1c5"/>
        <path id="Path_60548" data-name="Path 60548" d="M160.116,158.312c-.976-1.782-4.25-3.163-4.25-3.163.222-1.451,2.308-5.457,2.308-5.457h0a11.143,11.143,0,0,1-1.444-.135s-4.257,5.836-3.25,6.03a14.763,14.763,0,0,1,4.236,2.082,23.276,23.276,0,0,0,2.467,2.375,30.073,30.073,0,0,1,2.859,2.416c.5.456,4.747,2.871,5.855,3.517s1.334.022,1.334.022a5.991,5.991,0,0,0,2.508.839c.332-.15.111-.964.111-.964a19.746,19.746,0,0,0-2.77-1.269C168.676,164.112,161.1,160.1,160.116,158.312Z" fill="#e2b1a6"/>
        <path id="Path_60549" data-name="Path 60549" d="M153.55,143.132a17.238,17.238,0,0,1,.265,3.949c-.151,1.778-3.713-.546-3.58-.853s1.691-2.984,1.691-2.984Z" fill="#fcd1c5"/>
        <path id="Path_60550" data-name="Path 60550" d="M138.011,89.569s1.976-.09,4.38,3.858c2.316,3.8,6.389,17.407,8.524,22.625a6.88,6.88,0,0,1,.414,1.438c.694,4.071,3.946,23.224,4.1,25.526a18.273,18.273,0,0,1-4.073,2.057l-3.5-1.161L144.4,109.194l-5.586-18.333Z" fill="#055a9f"/>
        <path id="Path_60551" data-name="Path 60551" d="M126.815,203.806s-.669,3.212-.3,3.834,4.542,5.342,4.984,5.976,2.594,4.5,6.551,5.441,6.657.7,7.194-1.162-1.79-4.937-2.866-5.932-5.6-6.374-6.423-7.155a3.869,3.869,0,0,0-2.022-.9l-5.16.9Z" fill="#09337a"/>
        <path id="Path_60552" data-name="Path 60552" d="M142.824,194.2s3.948,1.53,6.012,2.05,6.988,4.2,6.934,6.045-2.478,3.131-4.94,2.948a13.841,13.841,0,0,1-5.863-2.172,14.5,14.5,0,0,0-4.18-1.969c-2.014-.627-5.26-.935-5.8-2.01a10.67,10.67,0,0,1-.613-3.289Z" fill="#08518d"/>
        <path id="Path_60553" data-name="Path 60553" d="M133.9,193.528c.03-.189.166-.507.19-.64a45.1,45.1,0,0,0,.01-4.947l-.87,1.189s.612,3.976,1.8,10.192c.3,1.577,1.127,3.2,1.249,4.1.362,2.662-1.218,3.181-1.218,3.181a5.462,5.462,0,0,1-6.937.181c-.984-.776-1.318-2.023-2.685-6.5-1.357-4.448-2.537-13.849-2.244-16.084a94.846,94.846,0,0,0,.94-11.261c-.036-3.761-2.928-15.781-2.928-15.781l11.962-2.323,8.166-4.229,6.232.94s.789-2.632,1.611,5.562c.834,8.312-4.2,23.02-4.2,23.02-1.328,7.283-1.667,15.658-2.422,16.793s-3.733,3.816-6.49,1.733a7.272,7.272,0,0,1-1.387-1.194Z" fill="#0b43a2"/>
        <path id="Path_60554" data-name="Path 60554" d="M133.235,189.13a145.653,145.653,0,0,0,5.8-21.089c1.832-10.2,5.009-11.634,6.329-13.465a17.527,17.527,0,0,0,3.041,1.091,1.741,1.741,0,0,0,.338.03c.877-.028-4.4,6.539-5.346,8.224s-6.4,16.142-6.784,18.137-.768,15.942-.326,16.742-1.509-.6-1.509-.6A32.36,32.36,0,0,1,133.235,189.13Z" fill="#09337a"/>
        <path id="Path_60555" data-name="Path 60555" d="M143.446,150.917l-2.1-.318-8.166,4.229-11.962,2.323s2.892,12.02,2.928,15.781a94.633,94.633,0,0,1-.94,11.261c-.291,2.215.887,11.636,2.244,16.084.592,1.942.991,3.276,1.333,4.229a3.557,3.557,0,0,0,2.452,2.937s-4.69-14.527-4.278-23.024c.4-8.378,1.607-15.35,1.391-16.97,0,0,13.623-4.189,16.176-12.981C142.917,153.1,143.219,151.922,143.446,150.917Z" fill="#09337a"/>
        <path id="Path_60556" data-name="Path 60556" d="M119.849,91.437a4.045,4.045,0,0,0-1.178,1.645c-.209.832-1.406,3.784-1.406,3.784s-5.7,7.559-6.722,9.875a20.8,20.8,0,0,0-1.361,4.062l15.083,18.574s-5.28,18.209-3.806,24.851c1.49,6.718,3.43,9.22,5.8,9.946s15.065-4.494,15.941-11.145c.867-6.575.514-7.41.514-7.41s5.925,1.581,6.295.07-.746-12.361-1.051-13.914-1.216-18.673-1.216-18.673-3.61-15.8-3.816-16.574-2.448-6.712-5.332-7.046-6.477,4.253-6.477,4.253Z" fill="#0168bc"/>
        <path id="Path_60557" data-name="Path 60557" d="M120.526,90.866a1.844,1.844,0,0,0-.722,1.057,3.508,3.508,0,0,0,.453,3.315c1.076,1.361,9.762,8.449,13.279,14.409,3.554,6.025,7.952,12.741,8.322,14.133,0,0,1.6-9.535.154-13.924C140.575,105.5,135.969,96.63,135,95.97s-6.948-1.223-6.948-1.223Z" fill="#f0f6ff"/>
        <path id="Path_60558" data-name="Path 60558" d="M129.5,100.453a5.956,5.956,0,0,0-.61,1.377s-2.523-1.288-3.578-1.763l3.873,2.692a6.929,6.929,0,0,1,.422-1.62,12.484,12.484,0,0,1,2.522,2.44c.313.752,4.4,11.016,4.4,11.016l2.146,3.5.553-.849-3.512-9.564s-1.978-3.011-2.005-3.081-1.366-3.3-1.366-3.3Z" fill="#c4ccd6"/>
        <path id="Path_60559" data-name="Path 60559" d="M129.5,100.453a4.476,4.476,0,0,1,3.772-2.308s.715,2.963.916,4.166c0,0-1.6.691-2.252.13S129.5,100.453,129.5,100.453Z" fill="#08518d"/>
        <path id="Path_60560" data-name="Path 60560" d="M133.81,101.671s6.394,7.884,8.626,17.4l-.466,4.909-3.364-6s-5.51-13.767-6.791-16.289S133.81,101.671,133.81,101.671Z" fill="#08518d"/>
        <path id="Path_60561" data-name="Path 60561" d="M123.215,133.295c-.428,1.684-.932,3.777-1.4,6.023,0,.005,9.467,12.357,18.705,17.388a7.684,7.684,0,0,0,1.689-3.677,56.047,56.047,0,0,0,.585-6.335l-10.744-8.146Z" fill="#0168bc"/>
        <path id="Path_60562" data-name="Path 60562" d="M122.572,115.148s2.736,3.733,3.465,4.07,6.646,10.714,7.844,12.669a28.175,28.175,0,0,0,4.391,4.709l-3.013.293-11.794-15.816Z" fill="#08518d"/>
        <path id="Path_60563" data-name="Path 60563" d="M124.245,118.439a19.059,19.059,0,0,0-5.439-7.613c-2.721-2.276-6.289-4.5-8.179-2.5-3.322,3.512-1.909,10.125,2.709,16.315C118,130.9,125.361,139.81,127.1,141.309c1.668,1.438,15.938,12.173,24.119,16.185a1.289,1.289,0,0,0,1.683-.528c1.129-1.863,3.467-5.748,4.3-7.344a.721.721,0,0,0-.234-.933c-2.989-1.92-17.923-11.522-22.344-14.5a4.9,4.9,0,0,1-1.611-1.829c-1.293-2.522-4.615-8.728-7.539-11.9a6.282,6.282,0,0,1-1.208-1.96Z" fill="#055a9f"/>
        <path id="Path_60564" data-name="Path 60564" d="M135.227,92.85l5.224,5.28L139.1,98.6l1.722,1a49.981,49.981,0,0,1,3.267,21.052s2.075-8.792-2.42-21.256l-1.39-.7.938-.3Z" fill="#08518d"/>
        <path id="Path_60565" data-name="Path 60565" d="M120.417,89.971a1.286,1.286,0,0,1,.128.654,10.9,10.9,0,0,0-.051,1.6,11.453,11.453,0,0,0,10.031,6.059s.8-1.2.962-1.43c0,0,2.708-.126,3.835-1.114s.433-2.712.433-2.712l.163-2.067a1.013,1.013,0,0,1,.311-.654,2.208,2.208,0,0,0,.61-.8,1.947,1.947,0,0,0-.23-.969,1.2,1.2,0,0,1-.1-.631,8.3,8.3,0,0,0-.257-3.021,2.44,2.44,0,0,1-.009-1.221,19.09,19.09,0,0,0,.43-1.979c.043-.542-.876-1.983-.917-2.551a15.939,15.939,0,0,0-.831-2.489S129.949,67.4,121.916,71.4c-8.092,4.029-3.874,12.676-2.874,15.127,0,0,.966,2,1.136,2.439C120.32,89.338,120.217,89.54,120.417,89.971Z" fill="#fcd1c5"/>
        <path id="Path_60566" data-name="Path 60566" d="M135.634,77.613a2.02,2.02,0,0,1-.671,1.733,10.606,10.606,0,0,1-5.472,2.613c-1.8.239-2.787.33-3.322.359A.712.712,0,0,0,125.5,83c-.037.672-.1,1.693-.2,2.38a2.769,2.769,0,0,1-.239.794l-.57,1.21a.8.8,0,0,1-.776.458l-.132-.01a.771.771,0,0,1-.7-.673l-.007-.052a2.8,2.8,0,0,0-1.528-2.193,1.7,1.7,0,0,0-1.4-.093,1.422,1.422,0,0,0-.811,1.915,14.273,14.273,0,0,1-2.438-4.705c-.755-2.674-.58-7.51,2.917-10.039,3.48-2.517,8.026-3.537,11.9-.809A9.045,9.045,0,0,1,135.634,77.613Z" fill="#aa8383"/>
        <path id="Path_60567" data-name="Path 60567" d="M122.394,88.939c-.176-.212.048,1.634-1.849,1.686a10.891,10.891,0,0,0-.051,1.6,11.453,11.453,0,0,0,10.031,6.059s.8-1.2.962-1.43c0,0-6.143-2.983-7.231-4.338A17.976,17.976,0,0,1,122.394,88.939Z" fill="#e2b1a6"/>
        <path id="Path_60568" data-name="Path 60568" d="M133.271,98.145a10.077,10.077,0,0,1,2.673.663,3.158,3.158,0,0,0-.245-1.965s.545.438.539,2.613c0,0-2.674-.869-2.875-.926Z" fill="#c4ccd6"/>
        <path id="Path_60569" data-name="Path 60569" d="M153.623,155.5s-15.5-8.907-20.747-12.458c-5.218-3.529-19.9-18.506-22.9-24.27a26.338,26.338,0,0,0,3.364,5.871C118,130.9,125.361,139.81,127.1,141.309c1.668,1.438,15.938,12.173,24.12,16.185a1.288,1.288,0,0,0,1.682-.528c.219-.361.484-.8.775-1.282Z" fill="#08518d"/>
        <path id="Path_60570" data-name="Path 60570" d="M117.985,97.333l7.079,10.068,1.821-.647.1,1.921s8.472,6.311,14.808,19.421c0,0-8.385-13.5-15.063-18l-.607-1.929-1.42.326Z" fill="#08518d"/>
        <path id="Path_60571" data-name="Path 60571" d="M117.349,83.327c-.077-.027-.149-.046-.221-.066a14.55,14.55,0,0,0,2.011,3.47,1.422,1.422,0,0,1,.811-1.915,1.7,1.7,0,0,1,1.4.093,2.8,2.8,0,0,1,1.528,2.193l.007.052a.771.771,0,0,0,.7.673l.132.01a.8.8,0,0,0,.776-.458l.57-1.21a2.779,2.779,0,0,0,.239-.794c.1-.687.162-1.708.2-2.38C125.5,83,120.779,84.523,117.349,83.327Z" fill="#936d6d"/>
      </g>
    </g>
  </g>
</svg>
